<?xml version="1.0" encoding="utf-8"?>
<!-- Generator: Adobe Illustrator 26.0.2, SVG Export Plug-In . SVG Version: 6.00 Build 0)  -->
<svg version="1.1" id="Camada_1" xmlns="http://www.w3.org/2000/svg" xmlns:xlink="http://www.w3.org/1999/xlink" x="0px" y="0px"
	 viewBox="0 0 1080 1080" style="enable-background:new 0 0 1080 1080;" xml:space="preserve">
<style type="text/css">
	.st0{fill:url(#SVGID_1_);}
	.st1{fill:url(#SVGID_00000096747078472856912330000001972199198431091851_);}
	.st2{fill:url(#SVGID_00000163058112563033661260000007885886852448913588_);}
	.st3{fill:url(#SVGID_00000181079251260368990800000013340821660548073908_);}
	.st4{fill:url(#SVGID_00000080906157528456352350000015439508221531053702_);}
	.st5{opacity:0.3;fill:url(#SVGID_00000106852190030987159600000001013091866205336249_);}
	.st6{opacity:0.2;fill:url(#SVGID_00000164479860739438551360000009320750804539143066_);}
	.st7{fill:url(#SVGID_00000091721810439394529290000017751626592673781383_);}
	.st8{opacity:0.4;fill:url(#SVGID_00000177461080990914099270000011493582500876278692_);}
	.st9{opacity:0.5;fill:url(#SVGID_00000076578546709664983480000006858257887150049431_);}
	.st10{fill:url(#SVGID_00000000908332230365540510000008666804109744778930_);}
	.st11{opacity:0.3;fill:url(#SVGID_00000071561022472217450620000003022459252995809942_);}
	.st12{opacity:0.2;fill:url(#SVGID_00000001663723723105023490000007637460001262038717_);}
	.st13{fill:url(#SVGID_00000145743229350617075260000015911014226190569090_);}
	.st14{fill:url(#SVGID_00000023981481025739849490000007396853646479232955_);}
	.st15{fill:url(#SVGID_00000168113710709715521210000012313953997657627562_);}
	.st16{fill:url(#SVGID_00000014596707025347793780000015184157728730824889_);}
	.st17{fill:url(#SVGID_00000183248968537211130480000002463366040495029148_);}
	.st18{fill:url(#SVGID_00000083087047751499089160000011899395093386498454_);}
	.st19{fill:url(#SVGID_00000072274821603627429110000002097434084513930654_);}
	.st20{opacity:0.3;fill:url(#SVGID_00000133529732895819284090000005171355677575771022_);}
	.st21{opacity:0.2;fill:url(#SVGID_00000168811893647246270900000001546215812570033803_);}
	.st22{fill:url(#SVGID_00000136406971302537410850000003814750755381738636_);}
	.st23{opacity:0.4;fill:url(#SVGID_00000134236308067773497280000007419379805994301321_);}
	.st24{opacity:0.5;fill:url(#SVGID_00000150807874473918444970000010649014870549474485_);}
	.st25{fill:url(#SVGID_00000136400348433474377780000013115789292490517648_);}
	.st26{opacity:0.3;fill:url(#SVGID_00000125584490996765200020000003339895839313450910_);}
	.st27{opacity:0.2;fill:url(#SVGID_00000165228147209511633610000010747397182984671888_);}
	.st28{fill:#1D1D1B;}
	.st29{opacity:0.3;fill:#1D1D1B;}
	.st30{opacity:0.2;fill:#1D1D1B;}
	.st31{opacity:0.4;fill:#1D1D1B;}
	.st32{opacity:0.5;fill:#1D1D1B;}
	.st33{fill:#FFFFFF;}
	.st34{fill:#DADADA;}
	.st35{opacity:0.3;fill:#DADADA;}
	.st36{opacity:0.2;fill:#DADADA;}
	.st37{opacity:0.4;fill:#DADADA;}
	.st38{opacity:0.5;fill:#DADADA;}
</style>
<g>
	<linearGradient id="SVGID_1_" gradientUnits="userSpaceOnUse" x1="376.1552" y1="546.4584" x2="519.3013" y2="546.4584">
		<stop  offset="0" style="stop-color:#951B81"/>
		<stop  offset="1" style="stop-color:#662483"/>
	</linearGradient>
	<path class="st0" d="M424.1,609.3c-9.2,0-16.9-0.8-23-2.3c-6.1-1.5-11.1-4-14.7-7.4c-3.7-3.4-6.3-7.8-7.8-13.3
		c-1.5-5.5-2.3-12.2-2.3-20.2v-82.5h28.2v81.6c0,3.9,0.4,7.2,1.2,9.7c0.8,2.5,2.1,4.6,3.8,6.2c1.7,1.6,4,2.7,6.9,3.3
		c2.9,0.6,6.4,0.9,10.6,0.9H469c4.2,0,7.7-0.3,10.6-0.9c2.9-0.6,5.2-1.7,6.9-3.3c1.7-1.6,3-3.7,3.8-6.3c0.8-2.6,1.2-5.8,1.2-9.8
		v-81.4h27.8v82.5c0,8-0.8,14.7-2.3,20.2c-1.5,5.5-4.1,9.9-7.8,13.3c-3.7,3.4-8.6,5.8-14.7,7.4c-6.1,1.5-13.9,2.3-23.2,2.3H424.1z"
		/>
	
		<linearGradient id="SVGID_00000014596469269692695420000007273380396207255468_" gradientUnits="userSpaceOnUse" x1="540.1165" y1="546.4584" x2="689.7098" y2="546.4584">
		<stop  offset="0" style="stop-color:#951B81"/>
		<stop  offset="1" style="stop-color:#662483"/>
	</linearGradient>
	<path style="fill:url(#SVGID_00000014596469269692695420000007273380396207255468_);" d="M641.4,609.3l-73.5-45.7v45.7h-27.8V483.6
		h98.4c8.8,0,16.4,0.6,22.7,1.7c6.3,1.1,11.4,3.1,15.4,5.9c4,2.8,6.9,6.7,8.8,11.6c1.8,4.9,2.8,11.1,2.8,18.6v8.7
		c0,7.2-1,13.2-2.9,18c-2,4.7-5,8.5-9.1,11.2c-4.1,2.8-9.3,4.7-15.6,5.8c-6.3,1.1-13.7,1.7-22.3,1.7H616l73.7,42.6H641.4z
		 M660,522.9c0-3.3-0.4-6-1.1-8.1c-0.7-2.1-2-3.7-3.7-4.8c-1.7-1.1-4.1-1.8-7.2-2.2c-3.1-0.4-6.9-0.6-11.4-0.6h-68.7v38.3h68.7
		c4.5,0,8.3-0.2,11.3-0.6c3-0.4,5.4-1.1,7.2-2.2c1.8-1.1,3-2.7,3.8-4.8c0.7-2.1,1.1-4.8,1.1-8.3V522.9z"/>
	
		<linearGradient id="SVGID_00000022543124431749344490000007288926662190319035_" gradientUnits="userSpaceOnUse" x1="705.1852" y1="546.4584" x2="848.3302" y2="546.4584">
		<stop  offset="0" style="stop-color:#951B81"/>
		<stop  offset="1" style="stop-color:#662483"/>
	</linearGradient>
	<path style="fill:url(#SVGID_00000022543124431749344490000007288926662190319035_);" d="M753.1,609.3c-9.2,0-16.9-0.8-23-2.3
		c-6.1-1.5-11.1-4-14.7-7.4c-3.7-3.4-6.3-7.8-7.8-13.3c-1.5-5.5-2.3-12.2-2.3-20.2v-82.5h28.2v81.6c0,3.9,0.4,7.2,1.2,9.7
		c0.8,2.5,2.1,4.6,3.8,6.2c1.7,1.6,4,2.7,6.9,3.3c2.9,0.6,6.4,0.9,10.6,0.9H798c4.2,0,7.7-0.3,10.6-0.9c2.9-0.6,5.2-1.7,6.9-3.3
		c1.7-1.6,3-3.7,3.8-6.3c0.8-2.6,1.2-5.8,1.2-9.8v-81.4h27.8v82.5c0,8-0.8,14.7-2.3,20.2c-1.5,5.5-4.1,9.9-7.8,13.3
		c-3.7,3.4-8.6,5.8-14.7,7.4c-6.1,1.5-13.9,2.3-23.2,2.3H753.1z"/>
	
		<linearGradient id="SVGID_00000034772291208864705260000007697076070077173433_" gradientUnits="userSpaceOnUse" x1="865.6447" y1="546.4584" x2="1000.8681" y2="546.4584">
		<stop  offset="0" style="stop-color:#951B81"/>
		<stop  offset="1" style="stop-color:#662483"/>
	</linearGradient>
	<path style="fill:url(#SVGID_00000034772291208864705260000007697076070077173433_);" d="M865.6,609.3v-23.8h95.4
		c5,0,8.7-0.7,10.9-2.1c2.2-1.4,3.3-4.3,3.3-8.6V568c0-3.9-1.1-6.7-3.3-8.4c-2.2-1.7-5.8-2.5-10.7-2.5h-59.9c-7,0-12.8-0.6-17.4-1.9
		s-8.3-3.3-11-5.9c-2.7-2.6-4.6-6-5.6-9.9c-1-4-1.6-8.7-1.6-14.1V519c0-6.4,0.7-11.9,2-16.4c1.3-4.5,3.4-8.2,6.3-11
		c2.8-2.8,6.5-4.8,11.1-6.1c4.5-1.3,9.9-1.9,16.2-1.9h39.1v23.8H904c-4.3,0-7.5,0.8-9.5,2.5c-2,1.7-3,5-3,10v4.1
		c0,3.9,0.9,6.7,2.8,8.4c1.8,1.7,5,2.5,9.6,2.5h58.8c7,0,12.9,0.6,17.8,1.7c4.9,1.2,8.8,3,11.9,5.6c3.1,2.6,5.3,5.9,6.6,9.9
		c1.3,4.1,2,8.9,2,14.6v9.9c0,5.9-0.7,10.9-2,15c-1.4,4.1-3.6,7.5-6.6,10c-3.1,2.6-7,4.5-11.9,5.7c-4.9,1.2-10.8,1.8-17.8,1.8H865.6
		z"/>
</g>
<g>
	
		<linearGradient id="SVGID_00000008852774370740832790000013226690908176556221_" gradientUnits="userSpaceOnUse" x1="257.2051" y1="583.9969" x2="350.3618" y2="583.9969">
		<stop  offset="0" style="stop-color:#951B81"/>
		<stop  offset="1" style="stop-color:#662483"/>
	</linearGradient>
	<polygon style="fill:url(#SVGID_00000008852774370740832790000013226690908176556221_);" points="350.4,561.7 311.7,606.3 
		257.2,606.3 297.2,561.7 	"/>
	
		<linearGradient id="SVGID_00000159459020537840212670000012936636009842637492_" gradientUnits="userSpaceOnUse" x1="79.1319" y1="583.9969" x2="171.7612" y2="583.9969">
		<stop  offset="0" style="stop-color:#951B81"/>
		<stop  offset="1" style="stop-color:#662483"/>
	</linearGradient>
	<polygon style="fill:url(#SVGID_00000159459020537840212670000012936636009842637492_);" points="79.1,561.7 117.1,606.3 
		171.8,606.3 132,561.7 	"/>
	<g>
		
			<linearGradient id="SVGID_00000125574588482961582330000014860701936162750593_" gradientUnits="userSpaceOnUse" x1="225.6505" y1="516.4884" x2="350.1165" y2="516.4884">
			<stop  offset="0" style="stop-color:#951B81"/>
			<stop  offset="1" style="stop-color:#662483"/>
		</linearGradient>
		<polygon style="fill:url(#SVGID_00000125574588482961582330000014860701936162750593_);" points="297.2,561.7 225.7,471.3 
			278.5,471.3 350.1,561.7 		"/>
		<g>
			
				<linearGradient id="SVGID_00000157991954886148410090000004982968149960708007_" gradientUnits="userSpaceOnUse" x1="225.6505" y1="516.2046" x2="350.1165" y2="516.2046">
				<stop  offset="0" style="stop-color:#951B81"/>
				<stop  offset="1" style="stop-color:#662483"/>
			</linearGradient>
			<polygon style="opacity:0.3;fill:url(#SVGID_00000157991954886148410090000004982968149960708007_);" points="350.1,561.7 
				225.7,470.7 297.2,561.7 			"/>
			
				<linearGradient id="SVGID_00000030479814548970611570000013520074247126919054_" gradientUnits="userSpaceOnUse" x1="225.6505" y1="516.7725" x2="297.2307" y2="516.7725">
				<stop  offset="0" style="stop-color:#951B81"/>
				<stop  offset="1" style="stop-color:#662483"/>
			</linearGradient>
			<polygon style="opacity:0.2;fill:url(#SVGID_00000030479814548970611570000013520074247126919054_);" points="278.5,471.3 
				297.2,562.3 225.7,471.3 			"/>
		</g>
	</g>
	<g>
		
			<linearGradient id="SVGID_00000041262161596985797020000011287332832981832347_" gradientUnits="userSpaceOnUse" x1="150.4979" y1="538.8359" x2="311.3877" y2="538.8359">
			<stop  offset="0" style="stop-color:#951B81"/>
			<stop  offset="1" style="stop-color:#662483"/>
		</linearGradient>
		<polygon style="fill:url(#SVGID_00000041262161596985797020000011287332832981832347_);" points="256.7,606.3 150.5,471.4 
			203.6,471.4 311.4,606.3 		"/>
		
			<linearGradient id="SVGID_00000165926279350428196160000012519914392300850071_" gradientUnits="userSpaceOnUse" x1="150.4979" y1="538.8362" x2="311.6626" y2="538.8362">
			<stop  offset="0" style="stop-color:#951B81"/>
			<stop  offset="1" style="stop-color:#662483"/>
		</linearGradient>
		<polygon style="opacity:0.4;fill:url(#SVGID_00000165926279350428196160000012519914392300850071_);" points="311.7,606.3 
			150.5,471.6 203.6,471.4 		"/>
		
			<linearGradient id="SVGID_00000154412948590113416310000015154371039189194391_" gradientUnits="userSpaceOnUse" x1="150.4979" y1="538.7958" x2="256.7139" y2="538.7958">
			<stop  offset="0" style="stop-color:#951B81"/>
			<stop  offset="1" style="stop-color:#662483"/>
		</linearGradient>
		<polygon style="opacity:0.5;fill:url(#SVGID_00000154412948590113416310000015154371039189194391_);" points="256.7,606.3 
			203,471.3 150.5,471.6 		"/>
	</g>
	<g>
		
			<linearGradient id="SVGID_00000036973340309735470530000009264928174861150911_" gradientUnits="userSpaceOnUse" x1="79.1383" y1="516.4884" x2="203.6059" y2="516.4884">
			<stop  offset="0" style="stop-color:#951B81"/>
			<stop  offset="1" style="stop-color:#662483"/>
		</linearGradient>
		<polygon style="fill:url(#SVGID_00000036973340309735470530000009264928174861150911_);" points="132,561.7 203.6,471.3 
			150.7,471.3 79.1,561.7 		"/>
		<g>
			
				<linearGradient id="SVGID_00000152261863653706293880000000658921867415026083_" gradientUnits="userSpaceOnUse" x1="79.1383" y1="516.2051" x2="203.6059" y2="516.2051">
				<stop  offset="0" style="stop-color:#951B81"/>
				<stop  offset="1" style="stop-color:#662483"/>
			</linearGradient>
			<polygon style="opacity:0.3;fill:url(#SVGID_00000152261863653706293880000000658921867415026083_);" points="79.1,561.7 
				203.6,470.7 132,561.7 			"/>
			
				<linearGradient id="SVGID_00000039129093026066639140000002248675989994292370_" gradientUnits="userSpaceOnUse" x1="132.0246" y1="516.7723" x2="203.6059" y2="516.7723">
				<stop  offset="0" style="stop-color:#951B81"/>
				<stop  offset="1" style="stop-color:#662483"/>
			</linearGradient>
			<polygon style="opacity:0.2;fill:url(#SVGID_00000039129093026066639140000002248675989994292370_);" points="150.7,471.3 
				132,562.3 203.6,471.3 			"/>
		</g>
	</g>
</g>
</svg>
