<?xml version="1.0" encoding="utf-8"?>
<!-- Generator: Adobe Illustrator 26.5.0, SVG Export Plug-In . SVG Version: 6.00 Build 0)  -->
<svg version="1.1" xmlns="http://www.w3.org/2000/svg" xmlns:xlink="http://www.w3.org/1999/xlink" x="0px" y="0px"
	 viewBox="0 0 196.3 196.3" style="enable-background:new 0 0 196.3 196.3;" xml:space="preserve">
<style type="text/css">
	.st0{fill:none;stroke:#FFFFFF;stroke-width:2;stroke-miterlimit:10;}
	.st1{fill:#575251;stroke:#FFFFFF;stroke-width:2;}
	.st2{fill:none;stroke:#FFFFFF;stroke-width:2;}
	.st3{fill:none;stroke:#FFFFFF;stroke-width:3;stroke-miterlimit:10;}
	.st4{fill:#FFFFFF;}
</style>
<g id="Camada_6">
	<polygon class="st0" points="269.6,43.5 269.6,143.6 322.1,178 457.5,178 457.5,77.9 404.9,43.5 	"/>
	<polyline class="st0" points="269.6,43.5 322.1,77.9 457.5,77.9 322.1,77.9 322.1,178 	"/>
	<line class="st1" x1="350.9" y1="43.5" x2="394.8" y2="77.9"/>
	<line class="st1" x1="344.7" y1="43.5" x2="388.6" y2="77.9"/>
	<polyline class="st2" points="457.5,155.3 322.1,155.3 269.6,120.5 	"/>
</g>
<g id="Camada_2">
	<path class="st2" d="M418.6,117.5l-3.7,19.7l9-5l1.4-7.6"/>
	<path class="st2" d="M441.9,117.6l3.7,19.7l-9-5l-1.7-7.6"/>
	<circle class="st2" cx="430.3" cy="105.6" r="12.1"/>
	<path class="st2" d="M430.3,84.3l4.9,4.9c0.5,0.5,1.2,0.8,1.9,0.7l6.9-0.6l0.6,6.9c0.1,0.7,0.4,1.4,1,1.8l5.7,4l-4,5.6
		c-0.4,0.6-0.5,1.3-0.4,2l1.8,6.7l-6.7,1.8c-0.7,0.2-1.3,0.7-1.6,1.3l-2.9,6.3l-6.2-2.9c-0.7-0.3-1.4-0.3-2.1,0l-6.2,2.9l-2.9-6.3
		c-0.3-0.7-0.9-1.1-1.6-1.3l-6.7-1.8l1.8-6.7c0.2-0.7,0.1-1.4-0.4-2l-4-5.6l5.7-4c0.6-0.4,1-1.1,1-1.8l0.6-6.9l6.9,0.6
		c0.7,0.1,1.4-0.2,1.9-0.7L430.3,84.3z"/>
	<circle class="st3" cx="98.6" cy="79.1" r="73.1"/>
	<polyline class="st3" points="129.1,29.3 68.2,81.6 125.3,130.6 	"/>
	<g>
		<path class="st4" d="M72.7,159.4c-2.7,0.2-3,0.2-3.7,2.7l-7.1,24.9h-4.2l-8.3-24.8c-0.9-2.5-1-2.7-3.3-2.9V159h10.4v0.4
			c-2.6,0.2-2.8,0.3-2,2.9l7.5,22.5l6.4-22.6c0.7-2.4,0.7-2.5-3.5-2.7V159h7.7V159.4z"/>
		<path class="st4" d="M89.9,176.6c0,6.1-3.9,10.7-9.5,10.7c-5.7,0-9.6-4.6-9.6-10.7s3.9-10.7,9.6-10.7
			C86.1,166,89.9,170.6,89.9,176.6z M75.7,176.6c0,7.5,1.8,10.2,4.7,10.2c3,0,4.7-2.7,4.7-10.2s-1.8-10.2-4.7-10.2
			C77.5,166.4,75.7,169.1,75.7,176.6z"/>
		<path class="st4" d="M99.3,159.5v24.2c0,2.6,0,2.6,2.5,2.8v0.4h-9.6v-0.4c2.6-0.2,2.6-0.2,2.6-2.8v-22.8c0-1.8-0.2-1.8-2.6-2v-0.4
			c2.3-0.4,4.3-0.7,5.4-0.7C98.9,157.8,99.3,158,99.3,159.5z"/>
		<path class="st4" d="M115,166.4v0.6H110v16c0,3,1.4,3.5,4.9,3.5v0.4c-1.4,0.2-3.2,0.4-5.1,0.4c-2.5,0-4.3-0.9-4.3-4.4V167h-2.7
			v-0.4l2.7-0.2l4.1-4.9h0.4v4.9H115z"/>
		<path class="st4" d="M131.8,172v11.4c0,2.2,0.4,2.9,2.6,3.1v0.4c-1.4,0.2-2.3,0.3-3.1,0.3c-2.5,0-3.8-1-4-4.6
			c-1,3.2-3.5,4.7-6.1,4.7c-3.2,0-5.2-2-5.2-4.9c0-4.2,3.8-5.8,11.3-6.8v-5.1c0-2.3-0.9-4.1-3.4-4.1c-2.2,0-3.2,1.4-3.2,3.2
			c0,0.7,0.1,1.4,0.3,2l-0.4,0.4c-0.5,0.2-1,0.3-1.4,0.3c-1.3,0-2.1-0.9-2.1-2.1c0-2.3,2.7-4.1,7.2-4.1
			C129.4,166,131.8,168.2,131.8,172z M127.3,175.9c-4.6,0.6-6.6,2.5-6.6,5.7c0,2.4,1.1,3.8,2.8,3.8c2.4,0,3.8-2.6,3.8-5.7V175.9z"/>
		<path class="st4" d="M150.7,168.3c0,1-0.6,1.6-1,2l-0.5,0.2c-0.7-0.7-1.4-1.2-2.4-1.2c-2.1,0-4,2.4-4,5.9v8.5c0,2.6-0.1,2.6,4,2.8
			v0.4h-11.1v-0.4c2.6-0.2,2.6-0.2,2.6-2.8v-14.6c0-1.8-0.1-1.8-2.6-2v-0.4c2.5-0.3,4.5-0.7,5.6-0.7c1,0,1.5,0.3,1.5,1.7v5
			c1.1-5.1,3.3-6.8,5.4-6.8C149.8,166,150.7,167,150.7,168.3z"/>
	</g>
</g>
</svg>
