<svg width="20" height="21" viewBox="0 0 20 21" fill="none" xmlns="http://www.w3.org/2000/svg">
<path d="M19.3385 15.945C19.3385 17.435 18.6935 18.65 17.4035 19.59C16.1235 20.53 14.2085 21 11.6585 21H1.29348C1.00348 21 0.788477 20.945 0.648477 20.835C0.518477 20.715 0.453477 20.555 0.453477 20.355C0.453477 20.015 0.648477 19.78 1.03848 19.65L1.92348 19.455C2.17348 19.395 2.35848 19.3 2.47848 19.17C2.59848 19.03 2.65848 18.845 2.65848 18.615V2.355C2.65848 2.145 2.59848 1.975 2.47848 1.845C2.35848 1.705 2.17348 1.605 1.92348 1.545L1.03848 1.35C0.648477 1.22 0.453477 0.984999 0.453477 0.644998C0.453477 0.434999 0.518477 0.274999 0.648477 0.164999C0.788477 0.0549988 1.00348 -1.43051e-06 1.29348 -1.43051e-06H9.31848C11.1885 -1.43051e-06 12.7785 0.254999 14.0885 0.764999C15.3985 1.275 16.3985 1.985 17.0885 2.895C17.7885 3.795 18.1385 4.85 18.1385 6.06C18.1385 7.06 17.8535 7.955 17.2835 8.745C16.7235 9.525 15.8935 10.145 14.7935 10.605C13.6935 11.065 12.3385 11.295 10.7285 11.295L11.5535 10.845C13.1235 10.845 14.4885 11.065 15.6485 11.505C16.8185 11.935 17.7235 12.535 18.3635 13.305C19.0135 14.075 19.3385 14.955 19.3385 15.945ZM9.94848 11.805H6.04848V10.665H9.61848C10.5185 10.665 11.2735 10.5 11.8835 10.17C12.5035 9.83 12.9685 9.335 13.2785 8.685C13.5985 8.025 13.7585 7.225 13.7585 6.285C13.7585 5.275 13.5585 4.4 13.1585 3.66C12.7585 2.91 12.1735 2.33 11.4035 1.92C10.6435 1.5 9.71848 1.29 8.62848 1.29H7.26348V18.33C7.26348 18.8 7.40848 19.15 7.69848 19.38C7.98848 19.6 8.41848 19.71 8.98848 19.71H10.6385C11.5285 19.71 12.2735 19.55 12.8735 19.23C13.4835 18.91 13.9435 18.46 14.2535 17.88C14.5635 17.29 14.7185 16.605 14.7185 15.825C14.7185 14.605 14.3135 13.63 13.5035 12.9C12.6935 12.17 11.5085 11.805 9.94848 11.805Z" fill="white"/>
</svg>
