<svg width="275" height="275" viewBox="0 0 275 275" fill="none" xmlns="http://www.w3.org/2000/svg">
<g opacity="0.5">
<path d="M15.6553 55.7935C27.3512 25.3088 47.3015 5.0202 64.1467 1.44898C70.3087 0.139808 76.6302 -0.25247 82.9068 0.284584C82.9068 0.284584 87.9008 0.90574 106.195 6.83188C106.195 6.83188 214.227 54.9915 234.1 58.2781C247.458 60.0465 261.032 59.2204 274.078 55.8453C258.889 82.3448 242.121 100.304 229.882 105.739C225.699 107.584 221.272 108.813 216.737 109.388C209.394 109.987 202.018 108.733 195.286 105.739C165.373 93.3431 110.646 58.1487 65.0524 52.1967C54.2104 50.7475 26.4197 47.9783 15.6553 55.7935Z" fill="url(#paint0_linear_96_123)"/>
<path d="M10.4795 136.793C22.1754 106.308 42.1257 86.0197 58.971 82.4485C65.1331 81.1397 71.4558 80.756 77.731 81.31C77.731 81.31 82.725 81.9049 101.019 87.8311C101.019 87.8311 209.051 136.017 228.924 139.277C242.282 141.061 255.859 140.235 268.902 136.845C253.713 163.344 236.945 181.304 224.706 186.764C220.52 188.594 216.094 189.814 211.561 190.387C204.221 190.984 196.848 189.738 190.11 186.764C160.197 174.343 105.47 139.148 59.8766 133.196C49.0346 131.747 21.2439 128.978 10.4795 136.793Z" fill="url(#paint1_linear_96_123)"/>
<path d="M0.128906 220.276C11.8248 189.792 31.7752 169.503 48.6204 165.932C54.7825 164.623 61.1052 164.239 67.3804 164.793C67.3804 164.793 72.3745 165.388 90.6687 171.314C90.6687 171.314 198.701 219.5 218.573 222.761C231.931 224.544 245.508 223.718 258.552 220.328C243.362 246.828 226.595 264.787 214.356 270.247C210.17 272.077 205.743 273.298 201.211 273.87C193.87 274.467 186.497 273.222 179.759 270.247C149.847 257.826 95.1194 222.631 49.526 216.679C38.684 215.23 10.8933 212.461 0.128906 220.276Z" fill="url(#paint2_linear_96_123)"/>
</g>
<defs>
<linearGradient id="paint0_linear_96_123" x1="15.5264" y1="54.3446" x2="278.167" y2="54.3446" gradientUnits="userSpaceOnUse">
<stop stop-color="#897E9E" stop-opacity="0"/>
<stop offset="0.5625" stop-color="#D3CBE4"/>
<stop offset="1" stop-color="#403B4A" stop-opacity="0.6"/>
</linearGradient>
<linearGradient id="paint1_linear_96_123" x1="10.3506" y1="134.568" x2="269.11" y2="134.568" gradientUnits="userSpaceOnUse">
<stop stop-color="#897E9E" stop-opacity="0"/>
<stop offset="0.598958" stop-color="#D3CBE4"/>
<stop offset="1" stop-color="#403B4A" stop-opacity="0.6"/>
</linearGradient>
<linearGradient id="paint2_linear_96_123" x1="3.18307e-05" y1="219.966" x2="258.759" y2="219.966" gradientUnits="userSpaceOnUse">
<stop stop-color="#897E9E" stop-opacity="0"/>
<stop offset="0.630208" stop-color="#D3CBE4"/>
<stop offset="1" stop-color="#403B4A" stop-opacity="0.6"/>
</linearGradient>
</defs>
</svg>
