<svg width="43" height="39" viewBox="0 0 43 39" fill="none" xmlns="http://www.w3.org/2000/svg">
<path d="M15.7316 20.495H24.4766L24.5516 21.965H15.6266L15.7316 20.495ZM17.3966 28.355C17.3966 28.555 17.3266 28.715 17.1866 28.835C17.0566 28.945 16.8466 29 16.5566 29H11.8316C11.5516 29 11.3416 28.945 11.2016 28.835C11.0616 28.715 10.9916 28.56 10.9916 28.37C10.9916 28.22 11.0316 28.1 11.1116 28.01C11.1916 27.91 11.3316 27.81 11.5316 27.71L12.0266 27.515C12.3366 27.375 12.5766 27.18 12.7466 26.93C12.9266 26.67 13.1116 26.23 13.3016 25.61L18.1016 10.79C18.2416 10.35 18.2766 10.035 18.2066 9.845C18.1466 9.645 17.9416 9.485 17.5916 9.365C17.3316 9.265 17.1466 9.16 17.0366 9.05C16.9266 8.93 16.8716 8.79 16.8716 8.63C16.8716 8.43 16.9416 8.275 17.0816 8.165C17.2316 8.055 17.4516 8 17.7416 8H24.9416C25.2316 8 25.4466 8.055 25.5866 8.165C25.7266 8.275 25.7966 8.43 25.7966 8.63C25.7966 8.8 25.7416 8.945 25.6316 9.065C25.5216 9.175 25.3466 9.27 25.1066 9.35C24.8366 9.42 24.6766 9.53 24.6266 9.68C24.5766 9.82 24.6066 10.055 24.7166 10.385L29.8916 26.075C30.0416 26.555 30.2066 26.91 30.3866 27.14C30.5666 27.36 30.8166 27.515 31.1366 27.605C31.4166 27.715 31.6016 27.825 31.6916 27.935C31.7816 28.045 31.8266 28.185 31.8266 28.355C31.8266 28.555 31.7566 28.715 31.6166 28.835C31.4766 28.945 31.2616 29 30.9716 29H24.3566C24.0666 29 23.8516 28.945 23.7116 28.835C23.5716 28.715 23.5016 28.555 23.5016 28.355C23.5016 28.195 23.5516 28.065 23.6516 27.965C23.7516 27.865 23.9016 27.78 24.1016 27.71L24.9566 27.53C25.2166 27.45 25.3416 27.325 25.3316 27.155C25.3316 26.985 25.2716 26.705 25.1516 26.315L19.8116 9.785L20.2916 9.44L15.1466 25.4C15.0166 25.81 14.9566 26.15 14.9666 26.42C14.9766 26.68 15.0666 26.895 15.2366 27.065C15.4166 27.235 15.6816 27.395 16.0316 27.545L16.7966 27.725C16.9966 27.795 17.1466 27.88 17.2466 27.98C17.3466 28.07 17.3966 28.195 17.3966 28.355Z" fill="white"/>
<line x1="4.69043" y1="36.3096" x2="37.5268" y2="36.3096" stroke="white" stroke-width="4"/>
</svg>
