<svg width="15" height="21" viewBox="0 0 15 21" fill="none" xmlns="http://www.w3.org/2000/svg">
<path d="M7.69203 18.525C7.62203 18.805 7.62203 19.025 7.69203 19.185C7.77203 19.335 7.92703 19.435 8.15703 19.485L8.98203 19.68C9.18203 19.74 9.32703 19.82 9.41703 19.92C9.50703 20.01 9.55203 20.135 9.55203 20.295C9.55203 20.505 9.46703 20.675 9.29703 20.805C9.12703 20.935 8.89703 21 8.60703 21H1.54203C1.23203 21 1.01703 20.945 0.897031 20.835C0.787031 20.715 0.732031 20.565 0.732031 20.385C0.732031 20.195 0.797031 20.04 0.927031 19.92C1.05703 19.79 1.21703 19.7 1.40703 19.65L2.29203 19.47C2.55203 19.41 2.75703 19.305 2.90703 19.155C3.05703 18.995 3.18203 18.75 3.28203 18.42C3.38203 18.06 3.52203 17.55 3.70203 16.89C3.88203 16.23 4.08703 15.475 4.31703 14.625C4.55703 13.765 4.80203 12.86 5.05203 11.91C5.31203 10.96 5.56703 10.01 5.81703 9.06C6.06703 8.11 6.30203 7.205 6.52203 6.345C6.74203 5.485 6.93703 4.72 7.10703 4.05C7.27703 3.38 7.39703 2.855 7.46703 2.475C7.52703 2.215 7.52203 2.01 7.45203 1.86C7.39203 1.7 7.24203 1.59 7.00203 1.53L6.14703 1.32C5.94703 1.25 5.80203 1.17 5.71203 1.08C5.62203 0.979999 5.57703 0.854999 5.57703 0.704999C5.57703 0.484999 5.66203 0.314998 5.83203 0.194999C6.01203 0.0649986 6.27703 -1.43051e-06 6.62703 -1.43051e-06H13.617C13.927 -1.43051e-06 14.137 0.0549988 14.247 0.164999C14.357 0.274999 14.412 0.42 14.412 0.6C14.412 0.78 14.347 0.934999 14.217 1.065C14.097 1.185 13.927 1.28 13.707 1.35L12.777 1.575C12.527 1.635 12.337 1.73 12.207 1.86C12.077 1.99 11.962 2.21 11.862 2.52C11.752 2.91 11.597 3.465 11.397 4.185C11.197 4.895 10.972 5.705 10.722 6.615C10.482 7.515 10.227 8.465 9.95703 9.465C9.69703 10.455 9.44203 11.435 9.19203 12.405C8.94203 13.375 8.71203 14.28 8.50203 15.12C8.29203 15.95 8.11203 16.665 7.96203 17.265C7.82203 17.865 7.73203 18.285 7.69203 18.525Z" fill="white"/>
</svg>
