<svg width="45" height="41" viewBox="0 0 45 41" fill="none" xmlns="http://www.w3.org/2000/svg">
<ellipse cx="22.6943" cy="20.7176" rx="20.1797" ry="19.9364" fill="white"/>
<path d="M16.9256 22.495H25.6706L25.7456 23.965H16.8206L16.9256 22.495ZM18.5906 30.355C18.5906 30.555 18.5206 30.715 18.3806 30.835C18.2506 30.945 18.0406 31 17.7506 31H13.0256C12.7456 31 12.5356 30.945 12.3956 30.835C12.2556 30.715 12.1856 30.56 12.1856 30.37C12.1856 30.22 12.2256 30.1 12.3056 30.01C12.3856 29.91 12.5256 29.81 12.7256 29.71L13.2206 29.515C13.5306 29.375 13.7706 29.18 13.9406 28.93C14.1206 28.67 14.3056 28.23 14.4956 27.61L19.2956 12.79C19.4356 12.35 19.4706 12.035 19.4006 11.845C19.3406 11.645 19.1356 11.485 18.7856 11.365C18.5256 11.265 18.3406 11.16 18.2306 11.05C18.1206 10.93 18.0656 10.79 18.0656 10.63C18.0656 10.43 18.1356 10.275 18.2756 10.165C18.4256 10.055 18.6456 10 18.9356 10H26.1356C26.4256 10 26.6406 10.055 26.7806 10.165C26.9206 10.275 26.9906 10.43 26.9906 10.63C26.9906 10.8 26.9356 10.945 26.8256 11.065C26.7156 11.175 26.5406 11.27 26.3006 11.35C26.0306 11.42 25.8706 11.53 25.8206 11.68C25.7706 11.82 25.8006 12.055 25.9106 12.385L31.0856 28.075C31.2356 28.555 31.4006 28.91 31.5806 29.14C31.7606 29.36 32.0106 29.515 32.3306 29.605C32.6106 29.715 32.7956 29.825 32.8856 29.935C32.9756 30.045 33.0206 30.185 33.0206 30.355C33.0206 30.555 32.9506 30.715 32.8106 30.835C32.6706 30.945 32.4556 31 32.1656 31H25.5506C25.2606 31 25.0456 30.945 24.9056 30.835C24.7656 30.715 24.6956 30.555 24.6956 30.355C24.6956 30.195 24.7456 30.065 24.8456 29.965C24.9456 29.865 25.0956 29.78 25.2956 29.71L26.1506 29.53C26.4106 29.45 26.5356 29.325 26.5256 29.155C26.5256 28.985 26.4656 28.705 26.3456 28.315L21.0056 11.785L21.4856 11.44L16.3406 27.4C16.2106 27.81 16.1506 28.15 16.1606 28.42C16.1706 28.68 16.2606 28.895 16.4306 29.065C16.6106 29.235 16.8756 29.395 17.2256 29.545L17.9906 29.725C18.1906 29.795 18.3406 29.88 18.4406 29.98C18.5406 30.07 18.5906 30.195 18.5906 30.355Z" fill="black"/>
</svg>
