<svg width="187" height="187" viewBox="0 0 187 187" fill="none" xmlns="http://www.w3.org/2000/svg">
<path d="M140.411 60.8787C140.411 75.9603 127.67 88.3355 111.766 88.3355C95.8619 88.3355 83.1211 75.9603 83.1211 60.8787C83.1211 45.7971 95.8619 33.4219 111.766 33.4219C127.67 33.4219 140.411 45.7971 140.411 60.8787Z" stroke="white" stroke-width="4.5"/>
<path d="M154.67 126.233C154.67 134.536 150.107 142.239 142.36 147.948C134.613 153.656 123.804 157.254 111.766 157.254C99.7272 157.254 88.9178 153.656 81.1714 147.948C73.4241 142.239 68.8613 134.536 68.8613 126.233C68.8613 117.929 73.4241 110.226 81.1714 104.517C88.9178 98.8094 99.7272 95.2109 111.766 95.2109C123.804 95.2109 134.613 98.8094 142.36 104.517C150.107 110.226 154.67 117.929 154.67 126.233Z" stroke="white" stroke-width="4.5"/>
<path d="M23.833 84.2926C36.4147 85.5508 41.4474 75.4854 45.2219 71.7109H54.0291H62.8363C68.8755 78.7567 74.1598 85.5508 84.2252 84.2926V111.972C83.3864 122.877 76.1729 144.685 54.0291 144.685C31.8853 144.685 24.6718 122.877 23.833 111.972V84.2926Z" fill="#97A0D8" stroke="white" stroke-width="5"/>
<path d="M49.4021 119.773C49.4021 118.908 49.4021 117.996 49.4021 117.039C49.4021 116.059 49.4135 115.057 49.4363 114.031C49.4363 113.667 49.4363 113.268 49.4363 112.835C49.4591 112.379 49.4705 111.787 49.4705 111.058L40.618 110.955C40.2078 110.955 39.7977 110.898 39.3875 110.784C39.0001 110.67 38.6469 110.454 38.3279 110.135C38.0089 109.816 37.7469 109.383 37.5418 108.836C37.3367 108.266 37.2342 107.537 37.2342 106.648C37.2342 105.942 37.3481 105.395 37.576 105.008C37.8038 104.598 38.1342 104.29 38.5672 104.085C39.0001 103.88 39.5128 103.755 40.1053 103.709C40.6977 103.641 41.3585 103.606 42.0877 103.606L49.5389 103.641L49.6414 94.4463C49.6414 94.0361 49.6756 93.6374 49.7439 93.25C49.8123 92.8398 49.9832 92.4753 50.2566 92.1562C50.5301 91.8372 50.9288 91.5752 51.4529 91.3701C51.9998 91.165 52.7404 91.0625 53.6746 91.0625C54.3582 91.0625 54.9165 91.1878 55.3494 91.4385C55.7824 91.6663 56.1242 91.9967 56.3748 92.4297C56.6482 92.8626 56.8305 93.3867 56.9217 94.002C57.0128 94.5944 57.0584 95.2666 57.0584 96.0186V98.4795C57.0356 99.4365 57.0242 100.348 57.0242 101.214C57.0242 102.057 57.0242 102.866 57.0242 103.641H63.3133L65.74 103.265C66.0363 103.265 66.3895 103.322 66.7996 103.436C67.2098 103.549 67.5971 103.755 67.9617 104.051C68.3491 104.347 68.6681 104.746 68.9187 105.247C69.1694 105.748 69.2947 106.386 69.2947 107.161C69.2947 108.392 68.9871 109.371 68.3719 110.101C67.7794 110.83 66.9705 111.194 65.9451 111.194C65.102 111.194 64.2133 111.194 63.2791 111.194C62.3449 111.194 61.365 111.183 60.3396 111.16C59.9523 111.16 59.5079 111.16 59.0066 111.16C58.5053 111.137 57.8331 111.126 56.99 111.126C56.9673 112.698 56.9559 113.94 56.9559 114.852C56.9786 115.763 56.99 116.515 56.99 117.107L57.4344 119.568C57.4344 119.887 57.366 120.252 57.2293 120.662C57.1154 121.049 56.9103 121.425 56.6141 121.79C56.3178 122.132 55.9077 122.428 55.3836 122.679C54.8823 122.929 54.2443 123.055 53.4695 123.055C52.2391 123.055 51.2479 122.758 50.4959 122.166C49.7667 121.574 49.4021 120.776 49.4021 119.773Z" fill="white"/>
<line x1="135.159" y1="42.3277" x2="84.8322" y2="70.0074" stroke="white" stroke-width="2.5"/>
<line x1="127.778" y1="37.5539" x2="84.6936" y2="62.1891" stroke="white" stroke-width="2.5"/>
<line x1="118.961" y1="42.3814" x2="101.346" y2="34.8323" stroke="white" stroke-width="2.5"/>
<line x1="111.412" y1="47.4146" x2="93.7975" y2="39.8655" stroke="white" stroke-width="2.5"/>
<line x1="109.39" y1="46.6816" x2="85.6242" y2="46.6816" stroke="white" stroke-width="2.5"/>
<line x1="101.417" y1="52.5898" x2="83.7503" y2="52.5898" stroke="white" stroke-width="2.5" stroke-linecap="round"/>
<line x1="123.271" y1="56.9434" x2="123.271" y2="64.8261" stroke="white" stroke-width="4" stroke-linecap="round"/>
<circle cx="93.5" cy="93.5" r="90" stroke="white" stroke-width="7"/>
</svg>
