<svg width="187" height="187" viewBox="0 0 187 187" fill="none" xmlns="http://www.w3.org/2000/svg">
<path d="M146.186 70.2197L95.2227 35.4159C93.5222 34.2546 91.2837 34.2546 89.5831 35.4159L38.6201 70.2197" stroke="white" stroke-width="8" stroke-linecap="round"/>
<path d="M135.209 65.6172L135.209 107.326" stroke="white" stroke-width="5"/>
<path d="M49.5967 65.6172V85.3741" stroke="white" stroke-width="5"/>
<mask id="path-4-inside-1_532_5808" fill="white">
<path d="M91.3047 110.521C91.3047 109.969 91.7524 109.521 92.3047 109.521H156.161C156.713 109.521 157.161 109.969 157.161 110.521V138.059H91.3047V110.521Z"/>
</mask>
<path d="M91.3047 110.521C91.3047 109.969 91.7524 109.521 92.3047 109.521H156.161C156.713 109.521 157.161 109.969 157.161 110.521V138.059H91.3047V110.521Z" stroke="white" stroke-width="6" mask="url(#path-4-inside-1_532_5808)"/>
<line x1="93.5" y1="118.994" x2="154.966" y2="118.994" stroke="white" stroke-width="3"/>
<line x1="93.5" y1="127.775" x2="154.966" y2="127.775" stroke="white" stroke-width="3"/>
<line x1="110.365" y1="111.713" x2="110.365" y2="120.494" stroke="white" stroke-width="3"/>
<line x1="127.929" y1="111.713" x2="127.929" y2="120.494" stroke="white" stroke-width="3"/>
<line x1="145.489" y1="111.713" x2="145.489" y2="120.494" stroke="white" stroke-width="3"/>
<line x1="101.586" y1="120.494" x2="101.586" y2="129.275" stroke="white" stroke-width="3"/>
<line x1="119.147" y1="120.494" x2="119.147" y2="129.275" stroke="white" stroke-width="3"/>
<line x1="136.708" y1="120.494" x2="136.708" y2="129.275" stroke="white" stroke-width="3"/>
<line x1="110.365" y1="127.084" x2="110.365" y2="135.865" stroke="white" stroke-width="3"/>
<line x1="127.929" y1="127.084" x2="127.929" y2="135.865" stroke="white" stroke-width="3"/>
<line x1="145.489" y1="127.084" x2="145.489" y2="135.865" stroke="white" stroke-width="3"/>
<line x1="157.16" y1="142.75" x2="29.8375" y2="142.75" stroke="white" stroke-width="5"/>
<path d="M32.0342 97.3208C40.1694 98.1343 43.4235 91.6261 45.864 89.1855H51.5587H57.2534C61.1583 93.7413 64.575 98.1343 71.0832 97.3208V115.218C70.5409 122.269 65.8767 136.37 51.5587 136.37C37.2407 136.37 32.5765 122.269 32.0342 115.218V97.3208Z" stroke="white" stroke-width="5"/>
<path d="M49.3018 121.256C49.3018 120.637 49.3018 119.986 49.3018 119.303C49.3018 118.603 49.3099 117.887 49.3262 117.154C49.3262 116.894 49.3262 116.609 49.3262 116.3C49.3424 115.974 49.3506 115.551 49.3506 115.03L43.0273 114.957C42.7344 114.957 42.4414 114.916 42.1484 114.835C41.8717 114.754 41.6195 114.599 41.3916 114.371C41.1637 114.143 40.9766 113.834 40.8301 113.443C40.6836 113.036 40.6104 112.516 40.6104 111.881C40.6104 111.376 40.6917 110.986 40.8545 110.709C41.0173 110.416 41.2533 110.196 41.5625 110.05C41.8717 109.903 42.238 109.814 42.6611 109.781C43.0843 109.732 43.5563 109.708 44.0771 109.708L49.3994 109.732L49.4727 103.165C49.4727 102.872 49.4971 102.587 49.5459 102.311C49.5947 102.018 49.7168 101.757 49.9121 101.529C50.1074 101.301 50.3923 101.114 50.7666 100.968C51.1572 100.821 51.6862 100.748 52.3535 100.748C52.8418 100.748 53.2406 100.838 53.5498 101.017C53.859 101.179 54.1032 101.415 54.2822 101.725C54.4775 102.034 54.6077 102.408 54.6729 102.848C54.738 103.271 54.7705 103.751 54.7705 104.288V106.046C54.7542 106.729 54.7461 107.381 54.7461 107.999C54.7461 108.601 54.7461 109.179 54.7461 109.732H59.2383L60.9717 109.464C61.1833 109.464 61.4355 109.505 61.7285 109.586C62.0215 109.667 62.2982 109.814 62.5586 110.025C62.8353 110.237 63.0632 110.522 63.2422 110.88C63.4212 111.238 63.5107 111.694 63.5107 112.247C63.5107 113.126 63.291 113.826 62.8516 114.347C62.4284 114.868 61.8506 115.128 61.1182 115.128C60.516 115.128 59.8812 115.128 59.2139 115.128C58.5465 115.128 57.8467 115.12 57.1143 115.104C56.8376 115.104 56.5202 115.104 56.1621 115.104C55.804 115.087 55.3239 115.079 54.7217 115.079C54.7054 116.202 54.6973 117.089 54.6973 117.74C54.7135 118.391 54.7217 118.928 54.7217 119.352L55.0391 121.109C55.0391 121.337 54.9902 121.598 54.8926 121.891C54.8112 122.167 54.6647 122.436 54.4531 122.696C54.2415 122.94 53.9486 123.152 53.5742 123.331C53.2161 123.51 52.7604 123.6 52.207 123.6C51.3281 123.6 50.6201 123.388 50.083 122.965C49.5622 122.542 49.3018 121.972 49.3018 121.256Z" fill="white"/>
<path d="M104.476 106.222V95.8555C104.476 93.094 102.237 90.8555 99.4755 90.8555H85.3281C82.5667 90.8555 80.3281 93.094 80.3281 95.8555V138.053" stroke="white" stroke-width="4"/>
<circle cx="93.5" cy="93.5" r="90" stroke="white" stroke-width="7"/>
</svg>
