<svg width="21" height="22" viewBox="0 0 21 22" fill="none" xmlns="http://www.w3.org/2000/svg">
<path d="M17.0675 12L16.5275 3.075C16.4975 2.635 16.3825 2.295 16.1825 2.055C15.9925 1.805 15.6875 1.63 15.2675 1.53L14.5325 1.38C14.2425 1.31 14.0425 1.215 13.9325 1.095C13.8225 0.974999 13.7675 0.824998 13.7675 0.644998C13.7675 0.454999 13.8375 0.299999 13.9775 0.18C14.1275 0.059999 14.3275 -1.43051e-06 14.5775 -1.43051e-06H20.0075C20.2675 -1.43051e-06 20.4675 0.059999 20.6075 0.18C20.7475 0.299999 20.8175 0.454999 20.8175 0.644998C20.8175 0.834999 20.7575 0.984999 20.6375 1.095C20.5175 1.205 20.3225 1.3 20.0525 1.38L19.3625 1.515C18.8625 1.645 18.5225 1.85 18.3425 2.13C18.1625 2.4 18.0875 2.745 18.1175 3.165L18.6725 11.985C18.7125 12.495 18.7425 13 18.7625 13.5C18.7925 13.99 18.8125 14.5 18.8225 15.03C18.8525 16.27 18.5775 17.38 17.9975 18.36C17.4275 19.34 16.5525 20.115 15.3725 20.685C14.1925 21.245 12.6925 21.525 10.8725 21.525C8.97254 21.525 7.38754 21.26 6.11754 20.73C4.85754 20.2 3.91254 19.455 3.28254 18.495C2.65254 17.525 2.34254 16.39 2.35254 15.09C2.36254 14.85 2.37254 14.55 2.38254 14.19C2.40254 13.82 2.42754 13.4 2.45754 12.93C2.48754 12.45 2.51754 11.93 2.54754 11.37L3.07254 2.43C3.08254 2.17 3.01754 1.97 2.87754 1.83C2.73754 1.69 2.49754 1.585 2.15754 1.515L1.36254 1.38C0.842539 1.27 0.582539 1.025 0.582539 0.644998C0.582539 0.454999 0.652539 0.299999 0.792539 0.18C0.942539 0.059999 1.14754 -1.43051e-06 1.40754 -1.43051e-06H9.31254C9.57254 -1.43051e-06 9.77254 0.059999 9.91254 0.18C10.0525 0.299999 10.1225 0.454999 10.1225 0.644998C10.1225 0.834999 10.0625 0.989999 9.94254 1.11C9.83254 1.22 9.63254 1.305 9.34254 1.365L8.53254 1.515C8.24254 1.575 8.03254 1.675 7.90254 1.815C7.77254 1.945 7.69754 2.145 7.67754 2.415L7.16754 11.355C7.12754 12.055 7.09754 12.695 7.07754 13.275C7.06754 13.845 7.05754 14.35 7.04754 14.79C7.02754 16.54 7.44754 17.83 8.30754 18.66C9.17754 19.49 10.3775 19.905 11.9075 19.905C13.0175 19.905 13.9675 19.71 14.7575 19.32C15.5475 18.93 16.1525 18.37 16.5725 17.64C17.0025 16.91 17.2075 16.04 17.1875 15.03C17.1775 14.34 17.1575 13.765 17.1275 13.305C17.1075 12.835 17.0875 12.4 17.0675 12Z" fill="white"/>
<path d="M-0.647461 25.875H21.6425V26.625H-0.647461V25.875Z" fill="white"/>
</svg>
