<svg width="187" height="187" viewBox="0 0 187 187" fill="none" xmlns="http://www.w3.org/2000/svg">
<path d="M92.6582 53.0918C100.754 58.511 116.944 78.0202 116.944 112.703" stroke="white" stroke-width="3" stroke-linecap="round"/>
<path d="M88.2441 53.0918C80.1488 58.511 63.958 78.0202 63.958 112.703" stroke="white" stroke-width="3" stroke-linecap="round"/>
<path d="M90.4513 103.867C90.4513 109.792 90.4513 136.663 90.4513 149.358C90.4513 151.121 89.247 154.647 84.4299 154.647C79.6128 154.647 79.414 151.474 79.4121 149.358" stroke="white" stroke-width="3.5" stroke-linecap="round"/>
<mask id="path-4-inside-1_532_5785" fill="white">
<path d="M152.749 114.912C153.704 114.912 154.481 114.137 154.455 113.183C154.013 96.8287 147.324 81.2372 135.725 69.6379C123.718 57.6305 107.432 50.8848 90.451 50.8848C73.4699 50.8848 57.1844 57.6305 45.177 69.6379C33.5777 81.2372 26.8885 96.8286 26.4472 113.183C26.4214 114.137 27.198 114.912 28.153 114.912C29.108 114.912 29.8795 114.137 29.9068 113.183C30.3472 97.746 36.6717 83.0339 47.6223 72.0833C58.9812 60.7244 74.3871 54.3431 90.451 54.3431C106.515 54.3431 121.921 60.7244 133.28 72.0833C144.23 83.0339 150.555 97.746 150.995 113.183C151.022 114.137 151.794 114.912 152.749 114.912Z"/>
</mask>
<path d="M152.749 114.912C153.704 114.912 154.481 114.137 154.455 113.183C154.013 96.8287 147.324 81.2372 135.725 69.6379C123.718 57.6305 107.432 50.8848 90.451 50.8848C73.4699 50.8848 57.1844 57.6305 45.177 69.6379C33.5777 81.2372 26.8885 96.8286 26.4472 113.183C26.4214 114.137 27.198 114.912 28.153 114.912C29.108 114.912 29.8795 114.137 29.9068 113.183C30.3472 97.746 36.6717 83.0339 47.6223 72.0833C58.9812 60.7244 74.3871 54.3431 90.451 54.3431C106.515 54.3431 121.921 60.7244 133.28 72.0833C144.23 83.0339 150.555 97.746 150.995 113.183C151.022 114.137 151.794 114.912 152.749 114.912Z" fill="#C4C4C4" stroke="white" stroke-width="6" mask="url(#path-4-inside-1_532_5785)"/>
<line x1="90.9082" y1="51.334" x2="90.9082" y2="46.0027" stroke="white" stroke-width="3.5" stroke-linecap="round"/>
<path d="M152.27 113.703C151.547 109.689 147.064 101.66 134.917 101.66C124.556 101.66 119.597 111.298 117.678 114.132C117.348 114.619 116.992 114.402 116.931 113.818C116.474 109.435 111.151 101.66 90.4496 101.66C71.1901 101.66 66.3101 111.316 64.8964 114.14C64.6633 114.606 64.3911 114.507 64.3053 113.994C63.535 109.381 59.5105 101.66 48.1529 101.66C36.0059 101.66 30.0769 109.689 28.6309 113.703" stroke="white" stroke-width="3" stroke-linecap="round"/>
<path d="M108.113 40.1799C117.594 41.128 121.386 33.5434 124.23 30.6992H130.867H137.503C142.054 36.0084 146.036 41.128 153.621 40.1799V61.0375C152.989 69.2541 147.553 85.6873 130.867 85.6873C114.181 85.6873 108.745 69.2541 108.113 61.0375V40.1799Z" fill="#97A0D8" stroke="white" stroke-width="5"/>
<path d="M128.162 67.5098C128.162 66.7676 128.162 65.9863 128.162 65.166C128.162 64.3262 128.172 63.4668 128.191 62.5879C128.191 62.2754 128.191 61.9336 128.191 61.5625C128.211 61.1719 128.221 60.6641 128.221 60.0391L120.633 59.9512C120.281 59.9512 119.93 59.9023 119.578 59.8047C119.246 59.707 118.943 59.5215 118.67 59.248C118.396 58.9746 118.172 58.6035 117.996 58.1348C117.82 57.6465 117.732 57.0215 117.732 56.2598C117.732 55.6543 117.83 55.1855 118.025 54.8535C118.221 54.502 118.504 54.2383 118.875 54.0625C119.246 53.8867 119.686 53.7793 120.193 53.7402C120.701 53.6816 121.268 53.6523 121.893 53.6523L128.279 53.6816L128.367 45.8008C128.367 45.4492 128.396 45.1074 128.455 44.7754C128.514 44.4238 128.66 44.1113 128.895 43.8379C129.129 43.5645 129.471 43.3398 129.92 43.1641C130.389 42.9883 131.023 42.9004 131.824 42.9004C132.41 42.9004 132.889 43.0078 133.26 43.2227C133.631 43.418 133.924 43.7012 134.139 44.0723C134.373 44.4434 134.529 44.8926 134.607 45.4199C134.686 45.9277 134.725 46.5039 134.725 47.1484V49.2578C134.705 50.0781 134.695 50.8594 134.695 51.6016C134.695 52.3242 134.695 53.0176 134.695 53.6816H140.086L142.166 53.3594C142.42 53.3594 142.723 53.4082 143.074 53.5059C143.426 53.6035 143.758 53.7793 144.07 54.0332C144.402 54.2871 144.676 54.6289 144.891 55.0586C145.105 55.4883 145.213 56.0352 145.213 56.6992C145.213 57.7539 144.949 58.5938 144.422 59.2188C143.914 59.8438 143.221 60.1562 142.342 60.1562C141.619 60.1562 140.857 60.1562 140.057 60.1562C139.256 60.1562 138.416 60.1465 137.537 60.127C137.205 60.127 136.824 60.127 136.395 60.127C135.965 60.1074 135.389 60.0977 134.666 60.0977C134.646 61.4453 134.637 62.5098 134.637 63.291C134.656 64.0723 134.666 64.7168 134.666 65.2246L135.047 67.334C135.047 67.6074 134.988 67.9199 134.871 68.2715C134.773 68.6035 134.598 68.9258 134.344 69.2383C134.09 69.5312 133.738 69.7852 133.289 70C132.859 70.2148 132.312 70.3223 131.648 70.3223C130.594 70.3223 129.744 70.0684 129.1 69.5605C128.475 69.0527 128.162 68.3691 128.162 67.5098Z" fill="white"/>
<circle cx="93.5" cy="93.5" r="90" stroke="white" stroke-width="7"/>
</svg>
