<svg width="187" height="187" viewBox="0 0 187 187" fill="none" xmlns="http://www.w3.org/2000/svg">
<path d="M133.977 134.926H145.664C147.98 134.926 149.992 133.336 150.528 131.083L152.213 124.001C152.367 123.355 152.39 122.686 152.282 122.031L150.226 109.546C149.864 107.346 148.088 105.651 145.873 105.393L128.956 103.417C127.677 103.268 126.505 102.63 125.684 101.638L104.396 75.9011C103.446 74.7527 102.033 74.0879 100.543 74.0879H61.4131C59.158 74.0879 57.182 75.5975 56.5891 77.7733L50.3836 100.546C50.2735 100.95 49.923 101.243 49.5056 101.279L32.0297 102.802C29.5189 103.02 27.5635 105.073 27.4673 107.592L26.622 129.735C26.5138 132.569 28.7821 134.926 31.6183 134.926H34.0286M95.9531 134.926H73.1388" stroke="white" stroke-width="3"/>
<circle cx="115.081" cy="138.642" r="14.335" stroke="white" stroke-width="3"/>
<circle cx="54.4366" cy="138.649" r="14.335" stroke="white" stroke-width="3"/>
<path d="M138.491 108.713V108.713C138.491 111.081 140.291 113.061 142.649 113.285L145.8 113.585" stroke="white" stroke-width="3" stroke-linecap="round"/>
<path d="M85.8955 100.882H112.283C113.077 100.882 113.555 100.001 113.121 99.3356L101.715 81.8463C101.53 81.5633 101.215 81.3926 100.877 81.3926H85.8955C85.3432 81.3926 84.8955 81.8403 84.8955 82.3926V99.8818C84.8955 100.434 85.3432 100.882 85.8955 100.882Z" stroke="white" stroke-width="3" stroke-linecap="round"/>
<path d="M80.0178 99.8818V82.3926C80.0178 81.8403 79.5701 81.3926 79.0178 81.3926H62.791C62.3591 81.3926 61.976 81.6698 61.841 82.0801L56.088 99.5694C55.8752 100.216 56.357 100.882 57.0379 100.882H79.0178C79.5701 100.882 80.0178 100.434 80.0178 99.8818Z" stroke="white" stroke-width="3" stroke-linecap="round"/>
<path d="M106.817 37.4786C116.148 38.4117 119.88 30.9475 122.679 28.1484H129.21H135.741C140.22 33.3734 144.138 38.4117 151.602 37.4786V58.0051C150.98 66.0913 145.631 82.2637 129.21 82.2637C112.789 82.2637 107.439 66.0913 106.817 58.0051V37.4786Z" fill="#97A0D8" stroke="white" stroke-width="5"/>
<path d="M126.28 66.5117C126.28 65.7695 126.28 64.9883 126.28 64.168C126.28 63.3281 126.29 62.4688 126.309 61.5898C126.309 61.2773 126.309 60.9355 126.309 60.5645C126.329 60.1738 126.339 59.666 126.339 59.041L118.751 58.9531C118.399 58.9531 118.048 58.9043 117.696 58.8066C117.364 58.709 117.061 58.5234 116.788 58.25C116.514 57.9766 116.29 57.6055 116.114 57.1367C115.938 56.6484 115.85 56.0234 115.85 55.2617C115.85 54.6562 115.948 54.1875 116.143 53.8555C116.339 53.5039 116.622 53.2402 116.993 53.0645C117.364 52.8887 117.803 52.7812 118.311 52.7422C118.819 52.6836 119.385 52.6543 120.01 52.6543L126.397 52.6836L126.485 44.8027C126.485 44.4512 126.514 44.1094 126.573 43.7773C126.632 43.4258 126.778 43.1133 127.012 42.8398C127.247 42.5664 127.589 42.3418 128.038 42.166C128.507 41.9902 129.141 41.9023 129.942 41.9023C130.528 41.9023 131.007 42.0098 131.378 42.2246C131.749 42.4199 132.042 42.7031 132.257 43.0742C132.491 43.4453 132.647 43.8945 132.725 44.4219C132.803 44.9297 132.843 45.5059 132.843 46.1504V48.2598C132.823 49.0801 132.813 49.8613 132.813 50.6035C132.813 51.3262 132.813 52.0195 132.813 52.6836H138.204L140.284 52.3613C140.538 52.3613 140.841 52.4102 141.192 52.5078C141.544 52.6055 141.876 52.7812 142.188 53.0352C142.52 53.2891 142.794 53.6309 143.009 54.0605C143.223 54.4902 143.331 55.0371 143.331 55.7012C143.331 56.7559 143.067 57.5957 142.54 58.2207C142.032 58.8457 141.339 59.1582 140.46 59.1582C139.737 59.1582 138.975 59.1582 138.175 59.1582C137.374 59.1582 136.534 59.1484 135.655 59.1289C135.323 59.1289 134.942 59.1289 134.512 59.1289C134.083 59.1094 133.507 59.0996 132.784 59.0996C132.764 60.4473 132.755 61.5117 132.755 62.293C132.774 63.0742 132.784 63.7188 132.784 64.2266L133.165 66.3359C133.165 66.6094 133.106 66.9219 132.989 67.2734C132.891 67.6055 132.716 67.9277 132.462 68.2402C132.208 68.5332 131.856 68.7871 131.407 69.002C130.977 69.2168 130.43 69.3242 129.766 69.3242C128.712 69.3242 127.862 69.0703 127.218 68.5625C126.593 68.0547 126.28 67.3711 126.28 66.5117Z" fill="white"/>
<circle cx="93.5" cy="93.5" r="90" stroke="white" stroke-width="7"/>
</svg>
