<svg width="187" height="187" viewBox="0 0 187 187" fill="none" xmlns="http://www.w3.org/2000/svg">
<path d="M155.411 130.758L137.765 64.533C137.182 62.3437 135.199 60.8203 132.934 60.8203H52.6082C50.3426 60.8203 48.3601 62.3437 47.7768 64.533L30.1313 130.758C29.2856 133.932 31.678 137.045 34.9627 137.045H150.579C153.864 137.045 156.256 133.932 155.411 130.758Z" stroke="white" stroke-width="5"/>
<mask id="path-2-inside-1_532_5798" fill="white">
<path d="M135.03 59.6297C136.687 59.6297 138.044 60.9754 137.898 62.6259C137.534 66.7613 136.418 70.8271 134.585 74.6705C132.31 79.439 128.977 83.7718 124.774 87.4215C120.571 91.0712 115.582 93.9662 110.091 95.9414C104.6 97.9166 98.7147 98.9332 92.7713 98.9332C86.8279 98.9332 80.9426 97.9166 75.4516 95.9414C69.9606 93.9662 64.9713 91.0712 60.7686 87.4215C56.566 83.7718 53.2323 79.439 50.9578 74.6705C49.1246 70.8271 48.0085 66.7613 47.6444 62.6259C47.4991 60.9754 48.8558 59.6297 50.5127 59.6297L92.7713 59.6297H135.03Z"/>
</mask>
<path d="M135.03 59.6297C136.687 59.6297 138.044 60.9754 137.898 62.6259C137.534 66.7613 136.418 70.8271 134.585 74.6705C132.31 79.439 128.977 83.7718 124.774 87.4215C120.571 91.0712 115.582 93.9662 110.091 95.9414C104.6 97.9166 98.7147 98.9332 92.7713 98.9332C86.8279 98.9332 80.9426 97.9166 75.4516 95.9414C69.9606 93.9662 64.9713 91.0712 60.7686 87.4215C56.566 83.7718 53.2323 79.439 50.9578 74.6705C49.1246 70.8271 48.0085 66.7613 47.6444 62.6259C47.4991 60.9754 48.8558 59.6297 50.5127 59.6297L92.7713 59.6297H135.03Z" stroke="white" stroke-width="10" mask="url(#path-2-inside-1_532_5798)"/>
<mask id="path-3-inside-2_532_5798" fill="white">
<path d="M117.975 64.3918C118.527 64.3918 118.976 63.944 118.967 63.3918C118.885 58.5712 118.212 53.8113 116.98 49.351C115.664 44.5825 113.734 40.2497 111.301 36.6C108.867 32.9503 105.979 30.0552 102.8 28.0801C99.6209 26.1049 96.2136 25.0883 92.7727 25.0883C89.3317 25.0883 85.9245 26.1049 82.7455 28.0801C79.5664 30.0552 76.6779 32.9503 74.2448 36.6C71.8117 40.2497 69.8816 44.5825 68.5648 49.351C67.3332 53.8113 66.6606 58.5712 66.5788 63.3918C66.5694 63.944 67.018 64.3918 67.5703 64.3918L92.7727 64.3918H117.975Z"/>
</mask>
<path d="M117.975 64.3918C118.527 64.3918 118.976 63.944 118.967 63.3918C118.885 58.5712 118.212 53.8113 116.98 49.351C115.664 44.5825 113.734 40.2497 111.301 36.6C108.867 32.9503 105.979 30.0552 102.8 28.0801C99.6209 26.1049 96.2136 25.0883 92.7727 25.0883C89.3317 25.0883 85.9245 26.1049 82.7455 28.0801C79.5664 30.0552 76.6779 32.9503 74.2448 36.6C71.8117 40.2497 69.8816 44.5825 68.5648 49.351C67.3332 53.8113 66.6606 58.5712 66.5788 63.3918C66.5694 63.944 67.018 64.3918 67.5703 64.3918L92.7727 64.3918H117.975Z" stroke="white" stroke-width="4" mask="url(#path-3-inside-2_532_5798)"/>
<mask id="path-4-inside-3_532_5798" fill="white">
<path d="M117.975 64.3918C118.527 64.3918 118.976 63.944 118.967 63.3918C118.885 58.5712 118.212 53.8113 116.98 49.351C115.664 44.5825 113.734 40.2497 111.301 36.6C108.867 32.9503 105.979 30.0552 102.8 28.0801C99.6209 26.1049 96.2136 25.0883 92.7727 25.0883C89.3317 25.0883 85.9245 26.1049 82.7455 28.0801C79.5664 30.0552 76.6779 32.9503 74.2448 36.6C71.8117 40.2497 69.8816 44.5825 68.5648 49.351C67.3332 53.8113 66.6606 58.5712 66.5788 63.3918C66.5694 63.944 67.018 64.3918 67.5703 64.3918L92.7727 64.3918H117.975Z"/>
</mask>
<path d="M117.975 64.3918C118.527 64.3918 118.976 63.944 118.967 63.3918C118.885 58.5712 118.212 53.8113 116.98 49.351C115.664 44.5825 113.734 40.2497 111.301 36.6C108.867 32.9503 105.979 30.0552 102.8 28.0801C99.6209 26.1049 96.2136 25.0883 92.7727 25.0883C89.3317 25.0883 85.9245 26.1049 82.7455 28.0801C79.5664 30.0552 76.6779 32.9503 74.2448 36.6C71.8117 40.2497 69.8816 44.5825 68.5648 49.351C67.3332 53.8113 66.6606 58.5712 66.5788 63.3918C66.5694 63.944 67.018 64.3918 67.5703 64.3918L92.7727 64.3918H117.975Z" stroke="white" stroke-width="10" mask="url(#path-4-inside-3_532_5798)"/>
<circle cx="92.7723" cy="96.5496" r="9.52813" fill="white"/>
<path d="M109.445 104.063C119.674 105.086 123.766 96.9026 126.834 93.834H133.994H141.154C146.064 99.5621 150.36 105.086 158.543 104.063V126.566C157.861 135.431 151.997 153.161 133.994 153.161C115.992 153.161 110.127 135.431 109.445 126.566V104.063Z" fill="#97A0D8" stroke="white" stroke-width="5"/>
<path d="M131.151 135.51C131.151 134.768 131.151 133.986 131.151 133.166C131.151 132.326 131.161 131.467 131.18 130.588C131.18 130.275 131.18 129.934 131.18 129.562C131.2 129.172 131.21 128.664 131.21 128.039L123.622 127.951C123.27 127.951 122.919 127.902 122.567 127.805C122.235 127.707 121.932 127.521 121.659 127.248C121.385 126.975 121.161 126.604 120.985 126.135C120.809 125.646 120.721 125.021 120.721 124.26C120.721 123.654 120.819 123.186 121.014 122.854C121.21 122.502 121.493 122.238 121.864 122.062C122.235 121.887 122.674 121.779 123.182 121.74C123.69 121.682 124.256 121.652 124.881 121.652L131.268 121.682L131.356 113.801C131.356 113.449 131.385 113.107 131.444 112.775C131.503 112.424 131.649 112.111 131.883 111.838C132.118 111.564 132.46 111.34 132.909 111.164C133.378 110.988 134.012 110.9 134.813 110.9C135.399 110.9 135.878 111.008 136.249 111.223C136.62 111.418 136.913 111.701 137.128 112.072C137.362 112.443 137.518 112.893 137.596 113.42C137.674 113.928 137.713 114.504 137.713 115.148V117.258C137.694 118.078 137.684 118.859 137.684 119.602C137.684 120.324 137.684 121.018 137.684 121.682H143.075L145.155 121.359C145.409 121.359 145.712 121.408 146.063 121.506C146.415 121.604 146.747 121.779 147.059 122.033C147.391 122.287 147.665 122.629 147.88 123.059C148.094 123.488 148.202 124.035 148.202 124.699C148.202 125.754 147.938 126.594 147.411 127.219C146.903 127.844 146.21 128.156 145.331 128.156C144.608 128.156 143.846 128.156 143.046 128.156C142.245 128.156 141.405 128.146 140.526 128.127C140.194 128.127 139.813 128.127 139.383 128.127C138.954 128.107 138.378 128.098 137.655 128.098C137.635 129.445 137.626 130.51 137.626 131.291C137.645 132.072 137.655 132.717 137.655 133.225L138.036 135.334C138.036 135.607 137.977 135.92 137.86 136.271C137.762 136.604 137.587 136.926 137.333 137.238C137.079 137.531 136.727 137.785 136.278 138C135.848 138.215 135.301 138.322 134.637 138.322C133.583 138.322 132.733 138.068 132.088 137.561C131.463 137.053 131.151 136.369 131.151 135.51Z" fill="white"/>
<circle cx="93.5" cy="93.5" r="90" stroke="white" stroke-width="7"/>
</svg>
