<?xml version="1.0" encoding="utf-8"?>
<!-- Generator: Adobe Illustrator 26.0.2, SVG Export Plug-In . SVG Version: 6.00 Build 0)  -->
<svg version="1.1" id="Camada_1" xmlns="http://www.w3.org/2000/svg" xmlns:xlink="http://www.w3.org/1999/xlink" x="0px" y="0px"
	 viewBox="0 0 1080 1080" style="enable-background:new 0 0 1080 1080;" xml:space="preserve">
<style type="text/css">
	.st0{fill:#1D1D1B;}
	.st1{fill:url(#SVGID_1_);}
	.st2{fill:url(#SVGID_00000067954723778867654230000000497712067964448433_);}
	.st3{fill:url(#SVGID_00000067951093680951671230000009479957259565629072_);}
	.st4{fill:url(#SVGID_00000158749287602821179660000005005464132766195378_);}
	.st5{fill:url(#SVGID_00000082330272888454415080000017446060010258747795_);}
	.st6{fill:url(#SVGID_00000067956024554783461110000006941372022067508618_);}
	.st7{fill:#FFFFFF;}
	.st8{fill:url(#SVGID_00000169544908397642665690000009614015517589818038_);}
	.st9{fill:url(#SVGID_00000069381217511964753880000000508641002975261104_);}
	.st10{fill:url(#SVGID_00000125575790080449693070000006309241420651016590_);}
	.st11{fill:url(#SVGID_00000031900904884784092830000005858461548477833897_);}
	.st12{fill:url(#SVGID_00000055669309078884857910000003145300041365402508_);}
	.st13{fill:url(#SVGID_00000098915794292698772280000010995785368186956462_);}
	.st14{fill:url(#SVGID_00000031169873570705204890000007804823545864061601_);}
	.st15{fill:url(#SVGID_00000020387481596417422030000009567228806547256992_);}
	.st16{fill:url(#SVGID_00000054961091636211582910000005097885674961510314_);}
	.st17{fill:url(#SVGID_00000155863762872949061180000002950613465954945976_);}
	.st18{fill:url(#SVGID_00000057848529658874996720000014441551204037497759_);}
	.st19{fill:url(#SVGID_00000174603879735918045340000017909306177805270431_);}
	.st20{fill:url(#SVGID_00000111913745069163581890000004503120793726435973_);}
	.st21{fill:url(#SVGID_00000066513531476043162320000008577796626458068868_);}
	.st22{fill:url(#SVGID_00000150082660361157121180000004163397402521676193_);}
	.st23{fill:url(#SVGID_00000177452255505126301880000008736612979186316679_);}
	.st24{fill:url(#SVGID_00000001635988842733231260000012257391641657996473_);}
	.st25{fill:url(#SVGID_00000060743104766707452350000004658966084779115676_);}
	.st26{fill:url(#SVGID_00000153691372662909278140000007114598743289393297_);}
	.st27{fill:url(#SVGID_00000149368070697574680720000015991555803267200908_);}
	.st28{fill:url(#SVGID_00000036226840418548504260000010422336187557509519_);}
	.st29{fill:url(#SVGID_00000038384031499569248120000005029537021332408486_);}
	.st30{fill:url(#SVGID_00000153679492827038534530000001172048903382382727_);}
	.st31{fill:url(#SVGID_00000052065003574719341700000014143887632799225007_);}
	.st32{fill:url(#SVGID_00000111166055513613403710000006457557899615543737_);}
	.st33{fill:url(#SVGID_00000178899383373221216100000016416770160477139872_);}
	.st34{fill:url(#SVGID_00000003793105497401763920000005032960689861438901_);}
	.st35{fill:url(#SVGID_00000040552206405146712670000002899185486453273773_);}
	.st36{fill:url(#SVGID_00000060728817054458881770000009426558301772939450_);}
	.st37{fill:url(#SVGID_00000163794221505723068230000017438646642270360472_);}
	.st38{fill:url(#SVGID_00000157299089146133356720000007366297574536900021_);}
	.st39{fill:url(#SVGID_00000155865109143073840960000006574187950338327999_);}
	.st40{fill:url(#SVGID_00000078741771730182187970000017799410602521975987_);}
	.st41{fill:url(#SVGID_00000090974506659483852700000001100884872212700834_);}
	.st42{fill:url(#SVGID_00000156553414712789310790000006394920103533982642_);}
	.st43{fill:url(#SVGID_00000093138045568152282420000017724974332213859215_);}
	.st44{fill:url(#SVGID_00000088852224286181758830000007002321192522728838_);}
</style>
<g>
	<g>
		<linearGradient id="SVGID_1_" gradientUnits="userSpaceOnUse" x1="315.2791" y1="628.1928" x2="323.4493" y2="346.3205">
			<stop  offset="0" style="stop-color:#006F90"/>
			<stop  offset="0.1794" style="stop-color:#007498"/>
			<stop  offset="0.4561" style="stop-color:#0082AE"/>
			<stop  offset="0.7939" style="stop-color:#0099D1"/>
			<stop  offset="0.9309" style="stop-color:#00A4E1"/>
		</linearGradient>
		<path class="st1" d="M385.3,413.8v26.7H286v23.3h85.7v26.1H286v43.6h-29.1V413.8H385.3z"/>
		
			<linearGradient id="SVGID_00000178921935052974638670000003106246451078043030_" gradientUnits="userSpaceOnUse" x1="457.7816" y1="632.3233" x2="465.9518" y2="350.451">
			<stop  offset="0" style="stop-color:#006F90"/>
			<stop  offset="0.1794" style="stop-color:#007498"/>
			<stop  offset="0.4561" style="stop-color:#0082AE"/>
			<stop  offset="0.7939" style="stop-color:#0099D1"/>
			<stop  offset="0.9309" style="stop-color:#00A4E1"/>
		</linearGradient>
		<path style="fill:url(#SVGID_00000178921935052974638670000003106246451078043030_);" d="M399.3,533.6V413.8h29.1v93.1h97v26.7
			H399.3z"/>
		
			<linearGradient id="SVGID_00000124867672593568200030000006741751893237270434_" gradientUnits="userSpaceOnUse" x1="606.6413" y1="636.6381" x2="614.8115" y2="354.7657">
			<stop  offset="0" style="stop-color:#006F90"/>
			<stop  offset="0.1794" style="stop-color:#007498"/>
			<stop  offset="0.4561" style="stop-color:#0082AE"/>
			<stop  offset="0.7939" style="stop-color:#0099D1"/>
			<stop  offset="0.9309" style="stop-color:#00A4E1"/>
		</linearGradient>
		<path style="fill:url(#SVGID_00000124867672593568200030000006741751893237270434_);" d="M568.5,413.8v79.1c0,3.8,1.3,7.2,4,10
			c2.6,2.6,5.9,4,9.7,4h59.3c3.9-0.2,7.1-1.5,9.7-4.1c2.6-2.8,4-6.1,4-9.9v-79.1h29.1v84.8c0.1,9.7-3.3,17.9-10,24.7
			c-6.6,6.8-14.7,10.2-24.3,10.2h-76.4c-9.5,0-17.6-3.4-24.3-10.2c-6.6-6.8-10-15.1-10-24.7v-84.8H568.5z"/>
		
			<linearGradient id="SVGID_00000127722354629437901880000009056723212736659383_" gradientUnits="userSpaceOnUse" x1="765.1416" y1="641.2323" x2="773.3118" y2="359.36">
			<stop  offset="0" style="stop-color:#006F90"/>
			<stop  offset="0.1794" style="stop-color:#007498"/>
			<stop  offset="0.4561" style="stop-color:#0082AE"/>
			<stop  offset="0.7939" style="stop-color:#0099D1"/>
			<stop  offset="0.9309" style="stop-color:#00A4E1"/>
		</linearGradient>
		<path style="fill:url(#SVGID_00000127722354629437901880000009056723212736659383_);" d="M801.7,413.8c9.8,0,18.1,3.5,24.9,10.6
			c6.8,7,10.3,15.6,10.3,25.6v0.5h-28.3c0.2-0.3,0.2-0.5,0.1-0.5c0-2.6-0.9-4.8-2.6-6.6c-1.7-1.9-3.8-2.8-6.5-2.6H739
			c-2.5-0.2-4.6,0.7-6.4,2.7c-1.7,1.7-2.6,3.9-2.6,6.5c0.1,2.6,0.9,4.7,2.6,6.6c1.7,1.8,3.8,2.7,6.3,2.7c7.2,0,18.2,0,33.1-0.1
			c14.9-0.2,25.9-0.2,33.1,0c10.1-0.1,18.7,3.6,25.7,10.9c7.2,7.2,10.7,16,10.6,26.3c0.1,10.3-3.5,19.1-10.7,26.3
			c-6.9,7.2-15.5,10.8-25.6,10.8h-70.5c-10,0-18.5-3.6-25.7-10.8c-7.1-7.2-10.6-16-10.6-26.3h27.2v0.2c0,2.9,1,5.4,3,7.5
			s4.4,3.1,7.2,3.1h66.6c2.9-0.2,5.3-1.2,7.3-3.1c2-2.1,3-4.6,3-7.4c0-3-1-5.5-3-7.5c-2-2.1-4.4-3.1-7.2-3.1h-68.7
			c-9.7-0.1-18-3.6-24.9-10.6c-6.8-7.1-10.3-15.6-10.3-25.5c0-10,3.4-18.4,10.3-25.3c6.8-6.9,15.1-10.6,24.9-10.9H801.7z"/>
		
			<linearGradient id="SVGID_00000169547151998222768660000000437766929515692969_" gradientUnits="userSpaceOnUse" x1="922.7814" y1="645.8016" x2="930.9515" y2="363.9292">
			<stop  offset="0" style="stop-color:#006F90"/>
			<stop  offset="0.1794" style="stop-color:#007498"/>
			<stop  offset="0.4561" style="stop-color:#0082AE"/>
			<stop  offset="0.7939" style="stop-color:#0099D1"/>
			<stop  offset="0.9309" style="stop-color:#00A4E1"/>
		</linearGradient>
		<path style="fill:url(#SVGID_00000169547151998222768660000000437766929515692969_);" d="M884.7,413.8v44.8h86.1v-44.8h29.1v119.7
			h-29.1v-48.2h-86.1v48.2h-29.1V413.8H884.7z"/>
	</g>
	<g>
		
			<linearGradient id="SVGID_00000011718750739496445490000007954593178228848540_" gradientUnits="userSpaceOnUse" x1="94.1928" y1="437.8402" x2="233.5848" y2="437.8402">
			<stop  offset="0" style="stop-color:#006F90"/>
			<stop  offset="0.1794" style="stop-color:#007498"/>
			<stop  offset="0.4561" style="stop-color:#0082AE"/>
			<stop  offset="0.7939" style="stop-color:#0099D1"/>
			<stop  offset="0.9309" style="stop-color:#00A4E1"/>
		</linearGradient>
		<path style="fill:url(#SVGID_00000011718750739496445490000007954593178228848540_);" d="M224.8,465.3h-92.3
			c-21.2,0-38.3-17.2-38.3-38.3v-7.9c0-4.9,3.9-8.8,8.8-8.8h92.3c21.2,0,38.3,17.2,38.3,38.3v7.9
			C233.6,461.4,229.6,465.3,224.8,465.3z"/>
		
			<linearGradient id="SVGID_00000145773390529704680660000006664704913734396847_" gradientUnits="userSpaceOnUse" x1="94.1928" y1="503.2672" x2="233.5848" y2="503.2672">
			<stop  offset="0" style="stop-color:#006F90"/>
			<stop  offset="0.1794" style="stop-color:#007498"/>
			<stop  offset="0.4561" style="stop-color:#0082AE"/>
			<stop  offset="0.7939" style="stop-color:#0099D1"/>
			<stop  offset="0.9309" style="stop-color:#00A4E1"/>
		</linearGradient>
		<path style="fill:url(#SVGID_00000145773390529704680660000006664704913734396847_);" d="M224.8,530.8h-92.3
			c-21.2,0-38.3-17.2-38.3-38.3v-7.9c0-4.9,3.9-8.8,8.8-8.8h92.3c21.2,0,38.3,17.2,38.3,38.3v7.9
			C233.6,526.8,229.6,530.8,224.8,530.8z"/>
		
			<linearGradient id="SVGID_00000054240088108857064230000012802092478532799372_" gradientUnits="userSpaceOnUse" x1="80.0961" y1="568.6895" x2="163.8888" y2="568.6895">
			<stop  offset="0" style="stop-color:#006F90"/>
			<stop  offset="0.1794" style="stop-color:#007498"/>
			<stop  offset="0.4561" style="stop-color:#0082AE"/>
			<stop  offset="0.7939" style="stop-color:#0099D1"/>
			<stop  offset="0.9309" style="stop-color:#00A4E1"/>
		</linearGradient>
		<path style="fill:url(#SVGID_00000054240088108857064230000012802092478532799372_);" d="M102.5,546.8c0.3-3.2,2.9-5.6,6.1-5.6
			c56.5,0,55.3,0,55.3,0c0,30.4-24.6,55-55,55H86.2c-5.7,0-8.3-7.1-4-10.7C93.4,575.9,101,562.3,102.5,546.8z"/>
	</g>
	<g>
		
			<linearGradient id="SVGID_00000036237550936754320130000016961536112966895250_" gradientUnits="userSpaceOnUse" x1="251.7528" y1="626.3515" x2="259.923" y2="344.4791">
			<stop  offset="0" style="stop-color:#006F90"/>
			<stop  offset="0.1794" style="stop-color:#007498"/>
			<stop  offset="0.4561" style="stop-color:#0082AE"/>
			<stop  offset="0.7939" style="stop-color:#0099D1"/>
			<stop  offset="0.9309" style="stop-color:#00A4E1"/>
		</linearGradient>
		<path style="fill:url(#SVGID_00000036237550936754320130000016961536112966895250_);" d="M252.2,592.4v-24.7h1.9v24.7H252.2z"/>
		
			<linearGradient id="SVGID_00000103226659085719622160000003647486437000468140_" gradientUnits="userSpaceOnUse" x1="273.4331" y1="626.9799" x2="281.6033" y2="345.1075">
			<stop  offset="0" style="stop-color:#006F90"/>
			<stop  offset="0.1794" style="stop-color:#007498"/>
			<stop  offset="0.4561" style="stop-color:#0082AE"/>
			<stop  offset="0.7939" style="stop-color:#0099D1"/>
			<stop  offset="0.9309" style="stop-color:#00A4E1"/>
		</linearGradient>
		<path style="fill:url(#SVGID_00000103226659085719622160000003647486437000468140_);" d="M266,567.7l16.6,20.4v-20.4h1.9v24.7
			h-0.7L267,572v20.4h-1.9v-24.7H266z"/>
		
			<linearGradient id="SVGID_00000170238678420322044970000012332397979134844830_" gradientUnits="userSpaceOnUse" x1="301.8525" y1="627.8036" x2="310.0227" y2="345.9313">
			<stop  offset="0" style="stop-color:#006F90"/>
			<stop  offset="0.1794" style="stop-color:#007498"/>
			<stop  offset="0.4561" style="stop-color:#0082AE"/>
			<stop  offset="0.7939" style="stop-color:#0099D1"/>
			<stop  offset="0.9309" style="stop-color:#00A4E1"/>
		</linearGradient>
		<path style="fill:url(#SVGID_00000170238678420322044970000012332397979134844830_);" d="M302.6,569.4h-8.9v-1.7h19.8v1.7h-8.9v23
			h-1.9V569.4z"/>
		
			<linearGradient id="SVGID_00000043441493238168784290000016388840296626214022_" gradientUnits="userSpaceOnUse" x1="330.0186" y1="628.6201" x2="338.1888" y2="346.7477">
			<stop  offset="0" style="stop-color:#006F90"/>
			<stop  offset="0.1794" style="stop-color:#007498"/>
			<stop  offset="0.4561" style="stop-color:#0082AE"/>
			<stop  offset="0.7939" style="stop-color:#0099D1"/>
			<stop  offset="0.9309" style="stop-color:#00A4E1"/>
		</linearGradient>
		<path style="fill:url(#SVGID_00000043441493238168784290000016388840296626214022_);" d="M324.6,579.1H339v1.7h-14.5v9.7h15.6v1.8
			h-17.5v-24.7h17v1.8h-15.2V579.1z"/>
		
			<linearGradient id="SVGID_00000054229624552127546090000005463043865043310767_" gradientUnits="userSpaceOnUse" x1="358.4522" y1="629.4442" x2="366.6224" y2="347.5719">
			<stop  offset="0" style="stop-color:#006F90"/>
			<stop  offset="0.1794" style="stop-color:#007498"/>
			<stop  offset="0.4561" style="stop-color:#0082AE"/>
			<stop  offset="0.7939" style="stop-color:#0099D1"/>
			<stop  offset="0.9309" style="stop-color:#00A4E1"/>
		</linearGradient>
		<path style="fill:url(#SVGID_00000054229624552127546090000005463043865043310767_);" d="M369.7,592.4h-2.5l-8.5-9.3h-6.7v9.3H350
			v-24.7c3.6,0,7.2,0,10.9,0c5.4,0,8.1,3.8,8.1,7.7c0,4-2.6,7.5-8,7.5L369.7,592.4z M351.9,581.3h8.7c4.3,0,6.2-2.4,6.2-5.9
			c0-2.9-1.9-5.9-6-5.9h-9V581.3z"/>
		
			<linearGradient id="SVGID_00000176019421197744446820000002300233611835152037_" gradientUnits="userSpaceOnUse" x1="388.8242" y1="630.3246" x2="396.9944" y2="348.4522">
			<stop  offset="0" style="stop-color:#006F90"/>
			<stop  offset="0.1794" style="stop-color:#007498"/>
			<stop  offset="0.4561" style="stop-color:#0082AE"/>
			<stop  offset="0.7939" style="stop-color:#0099D1"/>
			<stop  offset="0.9309" style="stop-color:#00A4E1"/>
		</linearGradient>
		<path style="fill:url(#SVGID_00000176019421197744446820000002300233611835152037_);" d="M400.1,570.5l-9.5,14.5H390l-9.5-14.5
			v21.9h-1.9v-24.7c0.9,0,1.3,0,2.3,0l9.5,14.4l9.3-14.4h2.3v24.7h-1.9V570.5z"/>
		
			<linearGradient id="SVGID_00000042715382327404147750000014763775528588812432_" gradientUnits="userSpaceOnUse" x1="420.3084" y1="631.2371" x2="428.4787" y2="349.3648">
			<stop  offset="0" style="stop-color:#006F90"/>
			<stop  offset="0.1794" style="stop-color:#007498"/>
			<stop  offset="0.4561" style="stop-color:#0082AE"/>
			<stop  offset="0.7939" style="stop-color:#0099D1"/>
			<stop  offset="0.9309" style="stop-color:#00A4E1"/>
		</linearGradient>
		<path style="fill:url(#SVGID_00000042715382327404147750000014763775528588812432_);" d="M414.9,579.1h14.5v1.7h-14.5v9.7h15.6
			v1.8h-17.5v-24.7h17v1.8h-15.2V579.1z"/>
		
			<linearGradient id="SVGID_00000178190577671590118860000003061991551988996776_" gradientUnits="userSpaceOnUse" x1="448.956" y1="632.0675" x2="457.1262" y2="350.1952">
			<stop  offset="0" style="stop-color:#006F90"/>
			<stop  offset="0.1794" style="stop-color:#007498"/>
			<stop  offset="0.4561" style="stop-color:#0082AE"/>
			<stop  offset="0.7939" style="stop-color:#0099D1"/>
			<stop  offset="0.9309" style="stop-color:#00A4E1"/>
		</linearGradient>
		<path style="fill:url(#SVGID_00000178190577671590118860000003061991551988996776_);" d="M461.1,579.8c0.1,6.3-3.9,12.6-12.5,12.6
			c-2.8,0-5.6,0-8.4,0v-24.7c2.8,0,5.6,0,8.4,0C456.9,567.7,460.9,573.7,461.1,579.8z M442.1,569.5v21.1h6.5
			c7.3,0,10.7-5.5,10.6-10.8c-0.1-5.2-3.5-10.3-10.6-10.3H442.1z"/>
		
			<linearGradient id="SVGID_00000052782775387401667630000003531994846739210129_" gradientUnits="userSpaceOnUse" x1="470.8658" y1="632.7026" x2="479.036" y2="350.8302">
			<stop  offset="0" style="stop-color:#006F90"/>
			<stop  offset="0.1794" style="stop-color:#007498"/>
			<stop  offset="0.4561" style="stop-color:#0082AE"/>
			<stop  offset="0.7939" style="stop-color:#0099D1"/>
			<stop  offset="0.9309" style="stop-color:#00A4E1"/>
		</linearGradient>
		<path style="fill:url(#SVGID_00000052782775387401667630000003531994846739210129_);" d="M471.5,592.4v-24.7h1.9v24.7H471.5z"/>
		
			<linearGradient id="SVGID_00000037650699358406208290000007297024572284296616_" gradientUnits="userSpaceOnUse" x1="492.7983" y1="633.3383" x2="500.9685" y2="351.466">
			<stop  offset="0" style="stop-color:#006F90"/>
			<stop  offset="0.1794" style="stop-color:#007498"/>
			<stop  offset="0.4561" style="stop-color:#0082AE"/>
			<stop  offset="0.7939" style="stop-color:#0099D1"/>
			<stop  offset="0.9309" style="stop-color:#00A4E1"/>
		</linearGradient>
		<path style="fill:url(#SVGID_00000037650699358406208290000007297024572284296616_);" d="M504.1,592.4l-2.7-6.1h-14.7l-2.7,6.1h-2
			l11.1-24.7h2.1l11.1,24.7H504.1z M500.6,584.6l-6.6-15l-6.6,15H500.6z"/>
		
			<linearGradient id="SVGID_00000102532431827053372350000009076061817023861644_" gradientUnits="userSpaceOnUse" x1="521.5464" y1="634.1716" x2="529.7167" y2="352.2993">
			<stop  offset="0" style="stop-color:#006F90"/>
			<stop  offset="0.1794" style="stop-color:#007498"/>
			<stop  offset="0.4561" style="stop-color:#0082AE"/>
			<stop  offset="0.7939" style="stop-color:#0099D1"/>
			<stop  offset="0.9309" style="stop-color:#00A4E1"/>
		</linearGradient>
		<path style="fill:url(#SVGID_00000102532431827053372350000009076061817023861644_);" d="M523,595.6l0.7-3
			c-7.6-0.5-11.6-6.1-11.6-12.5c-0.1-6.6,4.2-12.8,12.7-12.8c3.2,0,6.5,1.2,9,3.7l-1.3,1.1c-2.1-2.1-4.9-3.1-7.7-3.1
			c-7.2,0-10.9,5.1-10.9,11c0.1,5.8,3.7,10.8,10.9,10.8c2.8,0,5.6-1.1,7.7-3.1l1.3,1.2c-2.4,2.4-5.6,3.6-8.7,3.7l-0.4,1.9
			c2.9-0.1,3.8,1.8,3.4,3.6c-0.5,1.7-2.1,2.5-3.7,2.5c-1.4,0-3-0.6-3.7-1.9l1-1c0.7,1,1.6,1.4,2.6,1.4c1,0,2-0.4,2.2-1.3
			c0.4-1.3-0.7-2.6-3.4-2L523,595.6z"/>
		
			<linearGradient id="SVGID_00000023251159813968646560000003964736856303912885_" gradientUnits="userSpaceOnUse" x1="551.1819" y1="635.0306" x2="559.3521" y2="353.1582">
			<stop  offset="0" style="stop-color:#006F90"/>
			<stop  offset="0.1794" style="stop-color:#007498"/>
			<stop  offset="0.4561" style="stop-color:#0082AE"/>
			<stop  offset="0.7939" style="stop-color:#0099D1"/>
			<stop  offset="0.9309" style="stop-color:#00A4E1"/>
		</linearGradient>
		<path style="fill:url(#SVGID_00000023251159813968646560000003964736856303912885_);" d="M562.5,592.4l-2.7-6.1H545l-2.7,6.1h-2
			l11.1-24.7h2.1l11.1,24.7H562.5z M559,584.6l-6.6-15l-6.6,15H559z M548,564.3c0.2-2.1,2.3-2.9,4-2l1.4,0.8
			c0.8,0.4,1.9,0.3,2.2-0.9l1.2,0.4c-0.2,2.2-2.3,2.9-4,2l-1.4-0.8c-0.8-0.4-1.9-0.2-2.2,0.9L548,564.3z"/>
		
			<linearGradient id="SVGID_00000016069800089470112280000008111534233149000382_" gradientUnits="userSpaceOnUse" x1="581.6541" y1="635.9138" x2="589.8243" y2="354.0415">
			<stop  offset="0" style="stop-color:#006F90"/>
			<stop  offset="0.1794" style="stop-color:#007498"/>
			<stop  offset="0.4561" style="stop-color:#0082AE"/>
			<stop  offset="0.7939" style="stop-color:#0099D1"/>
			<stop  offset="0.9309" style="stop-color:#00A4E1"/>
		</linearGradient>
		<path style="fill:url(#SVGID_00000016069800089470112280000008111534233149000382_);" d="M595.7,580.1c0,6.5-4.2,12.7-12.5,12.7
			c-8.3,0-12.5-6.3-12.5-12.8c0-6.6,4.1-12.7,12.5-12.7C591.6,567.3,595.8,573.4,595.7,580.1z M572.7,580.1c0,5.6,3.6,11,10.6,11
			c7.1,0,10.6-5.4,10.6-11c0-5.7-3.5-11-10.6-11S572.7,574.2,572.7,580.1z"/>
		
			<linearGradient id="SVGID_00000078760342154040049360000000350130934899055496_" gradientUnits="userSpaceOnUse" x1="628.3158" y1="637.2664" x2="636.486" y2="355.394">
			<stop  offset="0" style="stop-color:#006F90"/>
			<stop  offset="0.1794" style="stop-color:#007498"/>
			<stop  offset="0.4561" style="stop-color:#0082AE"/>
			<stop  offset="0.7939" style="stop-color:#0099D1"/>
			<stop  offset="0.9309" style="stop-color:#00A4E1"/>
		</linearGradient>
		<path style="fill:url(#SVGID_00000078760342154040049360000000350130934899055496_);" d="M623.1,579.1h14.5v1.7h-14.5v9.7h15.6
			v1.8h-17.5v-24.7h17v1.8h-15.2V579.1z"/>
		
			<linearGradient id="SVGID_00000093166817039152943270000017579919327346579089_" gradientUnits="userSpaceOnUse" x1="670.762" y1="638.4966" x2="678.9322" y2="356.6243">
			<stop  offset="0" style="stop-color:#006F90"/>
			<stop  offset="0.1794" style="stop-color:#007498"/>
			<stop  offset="0.4561" style="stop-color:#0082AE"/>
			<stop  offset="0.7939" style="stop-color:#0099D1"/>
			<stop  offset="0.9309" style="stop-color:#00A4E1"/>
		</linearGradient>
		<path style="fill:url(#SVGID_00000093166817039152943270000017579919327346579089_);" d="M679.9,572.5c-1.8-2.9-4.7-3.3-7.5-3.4
			c-2.9,0-7.5,1.1-7.5,5c0,3.1,3.4,3.9,7.5,4.7c4.8,0.9,9.7,1.8,9.7,7.1c0,5.6-5.6,6.9-9.8,6.9c-3.8,0-8.2-1.6-10.1-5.4l1.7-0.8
			c1.5,3,5.4,4.5,8.4,4.5s7.9-0.8,7.9-5.2c0-3.7-4.1-4.5-8.1-5.3c-4.5-0.9-9.1-1.8-9.1-6.4c-0.1-5.2,5.3-6.8,9.4-6.8
			c3.5,0,6.6,0.6,9,4.2L679.9,572.5z"/>
		
			<linearGradient id="SVGID_00000096025380318420489680000013208923242575819702_" gradientUnits="userSpaceOnUse" x1="698.8981" y1="639.3122" x2="707.0684" y2="357.4399">
			<stop  offset="0" style="stop-color:#006F90"/>
			<stop  offset="0.1794" style="stop-color:#007498"/>
			<stop  offset="0.4561" style="stop-color:#0082AE"/>
			<stop  offset="0.7939" style="stop-color:#0099D1"/>
			<stop  offset="0.9309" style="stop-color:#00A4E1"/>
		</linearGradient>
		<path style="fill:url(#SVGID_00000096025380318420489680000013208923242575819702_);" d="M693.8,579.1h14.5v1.7h-14.5v9.7h15.6
			v1.8h-17.5v-24.7h17v1.8h-15.2V579.1z"/>
		
			<linearGradient id="SVGID_00000122718506525933908640000010909137134629559182_" gradientUnits="userSpaceOnUse" x1="727.3313" y1="640.1364" x2="735.5015" y2="358.264">
			<stop  offset="0" style="stop-color:#006F90"/>
			<stop  offset="0.1794" style="stop-color:#007498"/>
			<stop  offset="0.4561" style="stop-color:#0082AE"/>
			<stop  offset="0.7939" style="stop-color:#0099D1"/>
			<stop  offset="0.9309" style="stop-color:#00A4E1"/>
		</linearGradient>
		<path style="fill:url(#SVGID_00000122718506525933908640000010909137134629559182_);" d="M738.9,592.4h-2.5l-8.5-9.3h-6.7v9.3
			h-1.9v-24.7c3.6,0,7.2,0,10.9,0c5.4,0,8.1,3.8,8.1,7.7c0,4-2.6,7.5-8,7.5L738.9,592.4z M721.1,581.3h8.7c4.3,0,6.2-2.4,6.2-5.9
			c0-2.9-1.9-5.9-6-5.9h-9V581.3z"/>
		
			<linearGradient id="SVGID_00000034775203243015705410000017720255705923935617_" gradientUnits="userSpaceOnUse" x1="754.9316" y1="640.9364" x2="763.1019" y2="359.064">
			<stop  offset="0" style="stop-color:#006F90"/>
			<stop  offset="0.1794" style="stop-color:#007498"/>
			<stop  offset="0.4561" style="stop-color:#0082AE"/>
			<stop  offset="0.7939" style="stop-color:#0099D1"/>
			<stop  offset="0.9309" style="stop-color:#00A4E1"/>
		</linearGradient>
		<path style="fill:url(#SVGID_00000034775203243015705410000017720255705923935617_);" d="M768.2,567.7l-10.2,24.8h-2l-10.2-24.8h2
			l9.1,22.6l9.1-22.6H768.2z"/>
		
			<linearGradient id="SVGID_00000065054443122223329730000003888733798961898166_" gradientUnits="userSpaceOnUse" x1="776.356" y1="641.5574" x2="784.5262" y2="359.685">
			<stop  offset="0" style="stop-color:#006F90"/>
			<stop  offset="0.1794" style="stop-color:#007498"/>
			<stop  offset="0.4561" style="stop-color:#0082AE"/>
			<stop  offset="0.7939" style="stop-color:#0099D1"/>
			<stop  offset="0.9309" style="stop-color:#00A4E1"/>
		</linearGradient>
		<path style="fill:url(#SVGID_00000065054443122223329730000003888733798961898166_);" d="M777.2,592.4v-24.7h1.9v24.7H777.2z"/>
		
			<linearGradient id="SVGID_00000132809082161924844920000015227708773065686406_" gradientUnits="userSpaceOnUse" x1="798.0209" y1="642.1854" x2="806.1912" y2="360.313">
			<stop  offset="0" style="stop-color:#006F90"/>
			<stop  offset="0.1794" style="stop-color:#007498"/>
			<stop  offset="0.4561" style="stop-color:#0082AE"/>
			<stop  offset="0.7939" style="stop-color:#0099D1"/>
			<stop  offset="0.9309" style="stop-color:#00A4E1"/>
		</linearGradient>
		<path style="fill:url(#SVGID_00000132809082161924844920000015227708773065686406_);" d="M799.7,595.6l0.7-3
			c-7.6-0.5-11.6-6.1-11.6-12.5c-0.1-6.6,4.2-12.8,12.7-12.8c3.2,0,6.5,1.2,9,3.7l-1.3,1.1c-2.1-2.1-4.9-3.1-7.7-3.1
			c-7.2,0-10.9,5.1-10.9,11c0.1,5.8,3.7,10.8,10.9,10.8c2.8,0,5.6-1.1,7.7-3.1l1.3,1.2c-2.4,2.4-5.6,3.6-8.7,3.7l-0.4,1.9
			c2.9-0.1,3.8,1.8,3.4,3.6c-0.5,1.7-2.1,2.5-3.7,2.5c-1.4,0-3-0.6-3.7-1.9l1-1c0.7,1,1.6,1.4,2.6,1.4c1,0,2-0.4,2.2-1.3
			c0.4-1.3-0.7-2.6-3.4-2L799.7,595.6z"/>
		
			<linearGradient id="SVGID_00000090985484307729689670000010305723964386389126_" gradientUnits="userSpaceOnUse" x1="830.205" y1="643.1182" x2="838.3752" y2="361.2459">
			<stop  offset="0" style="stop-color:#006F90"/>
			<stop  offset="0.1794" style="stop-color:#007498"/>
			<stop  offset="0.4561" style="stop-color:#0082AE"/>
			<stop  offset="0.7939" style="stop-color:#0099D1"/>
			<stop  offset="0.9309" style="stop-color:#00A4E1"/>
		</linearGradient>
		<path style="fill:url(#SVGID_00000090985484307729689670000010305723964386389126_);" d="M844.5,580.1c0,6.5-4.2,12.7-12.5,12.7
			c-8.3,0-12.5-6.3-12.5-12.8c0-6.6,4.1-12.7,12.5-12.7C840.4,567.3,844.5,573.4,844.5,580.1z M821.5,580.1c0,5.6,3.6,11,10.6,11
			c7.1,0,10.6-5.4,10.6-11c0-5.7-3.5-11-10.6-11S821.4,574.2,821.5,580.1z"/>
		
			<linearGradient id="SVGID_00000106128431773657291280000017649052570911587480_" gradientUnits="userSpaceOnUse" x1="862.0583" y1="644.0415" x2="870.2285" y2="362.1692">
			<stop  offset="0" style="stop-color:#006F90"/>
			<stop  offset="0.1794" style="stop-color:#007498"/>
			<stop  offset="0.4561" style="stop-color:#0082AE"/>
			<stop  offset="0.7939" style="stop-color:#0099D1"/>
			<stop  offset="0.9309" style="stop-color:#00A4E1"/>
		</linearGradient>
		<path style="fill:url(#SVGID_00000106128431773657291280000017649052570911587480_);" d="M871.4,572.5c-1.8-2.9-4.7-3.3-7.5-3.4
			c-2.9,0-7.5,1.1-7.5,5c0,3.1,3.4,3.9,7.5,4.7c4.8,0.9,9.7,1.8,9.7,7.1c0,5.6-5.6,6.9-9.8,6.9c-3.8,0-8.2-1.6-10.1-5.4l1.7-0.8
			c1.5,3,5.4,4.5,8.4,4.5s7.9-0.8,7.9-5.2c0-3.7-4.1-4.5-8.1-5.3c-4.5-0.9-9.1-1.8-9.1-6.4c-0.1-5.2,5.3-6.8,9.4-6.8
			c3.5,0,6.6,0.6,9,4.2L871.4,572.5z"/>
		
			<linearGradient id="SVGID_00000043422537531622021390000016406051184221246853_" gradientUnits="userSpaceOnUse" x1="904.7018" y1="645.2775" x2="912.872" y2="363.4052">
			<stop  offset="0" style="stop-color:#006F90"/>
			<stop  offset="0.1794" style="stop-color:#007498"/>
			<stop  offset="0.4561" style="stop-color:#0082AE"/>
			<stop  offset="0.7939" style="stop-color:#0099D1"/>
			<stop  offset="0.9309" style="stop-color:#00A4E1"/>
		</linearGradient>
		<path style="fill:url(#SVGID_00000043422537531622021390000016406051184221246853_);" d="M900.6,567.7v22.9h13.9v1.8h-15.8v-24.7
			H900.6z"/>
		
			<linearGradient id="SVGID_00000039853642946370512610000011760223527692750998_" gradientUnits="userSpaceOnUse" x1="925.8049" y1="645.8892" x2="933.975" y2="364.0169">
			<stop  offset="0" style="stop-color:#006F90"/>
			<stop  offset="0.1794" style="stop-color:#007498"/>
			<stop  offset="0.4561" style="stop-color:#0082AE"/>
			<stop  offset="0.7939" style="stop-color:#0099D1"/>
			<stop  offset="0.9309" style="stop-color:#00A4E1"/>
		</linearGradient>
		<path style="fill:url(#SVGID_00000039853642946370512610000011760223527692750998_);" d="M927.1,569.4h-8.9v-1.7h19.8v1.7H929v23
			h-1.9V569.4z"/>
		
			<linearGradient id="SVGID_00000107560082860732340580000011544834687994590381_" gradientUnits="userSpaceOnUse" x1="955.3303" y1="646.7451" x2="963.5005" y2="364.8727">
			<stop  offset="0" style="stop-color:#006F90"/>
			<stop  offset="0.1794" style="stop-color:#007498"/>
			<stop  offset="0.4561" style="stop-color:#0082AE"/>
			<stop  offset="0.7939" style="stop-color:#0099D1"/>
			<stop  offset="0.9309" style="stop-color:#00A4E1"/>
		</linearGradient>
		<path style="fill:url(#SVGID_00000107560082860732340580000011544834687994590381_);" d="M967.9,579.8c0.1,6.3-3.9,12.6-12.5,12.6
			c-2.8,0-5.6,0-8.4,0v-24.7c2.8,0,5.6,0,8.4,0C963.7,567.7,967.7,573.7,967.9,579.8z M948.9,569.5v21.1h6.5
			c7.3,0,10.7-5.5,10.6-10.8c-0.1-5.2-3.5-10.3-10.6-10.3H948.9z"/>
		
			<linearGradient id="SVGID_00000093868916793604737690000005543372789901881761_" gradientUnits="userSpaceOnUse" x1="985.8118" y1="647.6285" x2="993.9821" y2="365.7562">
			<stop  offset="0" style="stop-color:#006F90"/>
			<stop  offset="0.1794" style="stop-color:#007498"/>
			<stop  offset="0.4561" style="stop-color:#0082AE"/>
			<stop  offset="0.7939" style="stop-color:#0099D1"/>
			<stop  offset="0.9309" style="stop-color:#00A4E1"/>
		</linearGradient>
		<path style="fill:url(#SVGID_00000093868916793604737690000005543372789901881761_);" d="M997.5,592.4l-2.7-6.1H980l-2.7,6.1h-2
			l11.1-24.7h2.1l11.1,24.7H997.5z M994,584.6l-6.6-15l-6.6,15H994z"/>
	</g>
</g>
</svg>
